{
.appVersion = "3436";
.formatVersion = 3;
DisplayStrings = (
"ROASTED PEANUTS IN FISH SAUCE WITH ANCHOVIES
Roasted peanuts in fish sauce with anchovies",
"ABCDEFGHIJKLMNOPQRSTUVWXYZabcdefghijklmnopqrstuvwxyz/y.ss02 0123456789 .,:;…!¡?¿·•*#///backslash -–—_(){}[]‚„“”‘’«»‹›\"'/quotedblleft.001 ฿¢$€£₩¥+−×÷=≠↑↗→↘↓↙←↖↔↕/AAngle/Currency",
adp,
y,
"ņ",
"ŗ",
"ḃ",
"ṅ",
"/x-heightdotaccent",
"ẋ",
"ẏ",
"ṡ",
"ṙ",
"ȧ",
"ċ",
"ȯ",
"Ẇ",
"Ẋ",
"Ẏ",
"Ż",
"Ṙ",
"Ṡ",
"˙",
"ì",
"`",
"ỳ",
"̀Ǹ",
"̀Ẁ",
"Ỳ",
"Ṫ",
"Ȑ",
"Ṗ",
"Ḟ",
"/idotaccent.sc",
"ȯ/idotaccent.sc",
"´",
"É",
"´/acutex",
"á",
"/acutex ć",
"é",
"´/acutex í",
"í",
"ń",
"ó",
"ŕ",
"ś",
"ú",
"ý",
"ź",
"/jacute",
"ĺ",
"´Á",
"Ć",
"/Jacute",
"Ĺ",
"´Ń",
"Ó",
"Ń",
"Í",
"Ŕ",
"Ś",
"Ú",
"Ý",
"Ź",
"̀",
"̏",
"ȁ",
"Ȕ",
"Ǹ",
"Ȉ",
"Television sans is a geometric, 80's inspired typeface.

TELEVISION SANS IS A GEOMETRIC, 80's INSPIRED TYPEFACE. BUILT FOR HEADLINE",
"Ȁ",
"/gravecomb-x ǹ",
"/gravecomb-x ǹ",
"ẁ",
"ȕ",
"ò",
"ù",
"è",
"à",
"Ù",
"Ò",
"È",
"À",
e,
"5",
"©",
"ˇ",
"/acutex",
"/caronx",
"ǎ",
"ě",
"ê",
"â",
"î",
"ŝ",
"Ť",
"ȟ",
"ĥ",
"ǒ",
"ô",
"ǩ",
"Ŵ",
"Ŷ",
"Ž",
"Û",
"Ǔ",
"ˇŘ",
"Ň",
"Ņ",
"Ǎ",
"Č",
"Ď",
"ǅ",
"Ě",
"Ǧ",
"Ȟ",
"Ǐ",
"Ǩ",
"Š",
"ň",
"Ǯ",
"dǆ",
"č",
"ǰ",
"ř",
"š",
"ṧ",
"ž",
"ǐ",
"ǆ",
"Ǆ",
"OØ",
"/y.ss02",
"/colon.ss04 BATTERYTETRATARTINRARAY",
TARTINEHD,
"/f_j.liga",
"Basecamp BASECAMPTelevision Sans"
);
axes = (
{
name = Weight;
tag = wght;
}
);
date = "2026-01-11 06:13:19 +0000";
familyName = "Television Sans";
featurePrefixes = (
{
automatic = 1;
code = "languagesystem DFLT dflt;

languagesystem latn dflt;
languagesystem latn AZE;
languagesystem latn CRT;
languagesystem latn KAZ;
languagesystem latn TAT;
languagesystem latn TRK;
languagesystem latn ROM;
languagesystem latn MOL;
languagesystem latn MAH;
languagesystem latn NLD;
languagesystem latn CAT;
";
name = Languagesystems;
}
);
features = (
{
automatic = 1;
code = "feature locl;
feature c2sc;
feature smcp;
feature fwid;
feature ss01;
feature ss02;
feature ss03;

glyphs = (
{
glyphname = A;
lastChange = "2026-02-09 22:30:19 +0000";
layers = (
{
layerId = m01;
shapes = (
{
closed = 1;
nodes = (
(177,115,l),
(523,115,l),
(523,269,l),
(177,269,l)
);
},
{
pos = (12,0);
ref = AAngle;
}
);
width = 702;
},
{
layerId = m002;
shapes = (
{
closed = 1;
nodes = (
(87,136,l),
(433,136,l),
(433,196,l),
(87,196,l)
);
},
{
pos = (-2,0);
ref = AAngle;
}
);
width = 546;
}
);
unicode = 65;
},
{
glyphname = B;
kernLeft = "0";
kernRight = "0";
lastChange = "2026-02-09 22:29:13 +0000";
layers = (
{
layerId = m01;
shapes = (
{
closed = 1;
nodes = (
(329,303,l),
(439,303,o),
(528,392,o),
(528,502,cs),
(528,612,o),
(439,701,o),
(329,701,c),
(56,700,l),
(56,303,l)
);
},
{
closed = 1;
nodes = (
(225,557,l),
(274,557,ls),
(321,557,o),
(359,524,o),
(359,484,c),
(359,443,o),
(321,409,o),
(274,409,c),
(225,409,l)
);
},
{
closed = 1;
nodes = (
(56,1,l),
(329,0,l),
(450,0,o),
(556,97,o),
(548,219,cs),
(541,327,o),
(450,398,o),
(329,398,c),
(56,398,l)
);
},
{
closed = 1;
nodes = (
(225,292,l),
(295,292,ls),
(341,292,o),
(379,259,o),
(379,219,c),
(379,178,o),
(341,144,o),
(295,144,cs),
(225,144,l)
);
}
);
width = 571;
},
{
layerId = m002;
shapes = (
{
closed = 1;
nodes = (
(237,343,l),
(340,343,o),
(416,421,o),
(416,525,cs),
(416,629,o),
(326,701,o),
(197,701,c),
(75,700,l),
(75,343,l)
);
},
{
closed = 1;
nodes = (
(135,641,l),
(195,641,ls),
(284,641,o),
(357,583,o),
(356,515,cs),
(355,450,o),
(278,390,o),
(195,390,c),
(135,390,l)
);
},
{
closed = 1;
nodes = (
(75,0,l),
(237,0,l),
(363,0,o),
(456,77,o),
(456,182,cs),
(456,287,o),
(355,378,o),
(237,378,c),
(75,378,l)
);
},
{
closed = 1;
nodes = (
(135,330,l),
(216,330,ls),
(318,330,o),
(396,266,o),
(396,182,c),
(396,108,o),
(334,61,o),
(237,61,cs),
(135,61,l)
);
}
);
width = 483;
}
);
unicode = 66;
},
{
glyphname = C;
kernLeft = "0";
kernRight = "0";
lastChange = "2026-02-09 22:29:13 +0000";
layers = (
{
layerId = m01;
shapes = (
{
closed = 1;
nodes = (
(384,-12,o),
(449,-5,o),
(486,7,c),
(486,191,l),
(457,173,o),
(422,162,o),
(385,162,cs),
(281,162,o),
(197,246,o),
(197,350,cs),
(197,454,o),
(281,538,o),
(385,538,cs),
(422,538,o),
(456,527,o),
(486,509,c),
(486,692,l),
(440,707,o),
(375,712,o),
(346,712,cs),
(180,712,o),
(23,550,o),
(23,350,cs),
(23,162,o),
(143,-12,o),
(343,-12,cs)
);
}
);
width = 521;
},
{
layerId = m002;
shapes = (
{
closed = 1;
nodes = (
(402,-12,o),
(450,-8,o),
(496,7,c),
(503,67,l),
(455,51,o),
(405,48,o),
(355,48,cs),
(189,48,o),
(93,184,o),
(93,350,cs),
(93,510,o),
(196,634,o),
(355,652,cs),
(406,658,o),
(458,650,o),
(503,625,c),
(496,692,l),
(451,707,o),
(404,713,o),
(356,712,cs),
(157,706,o),
(33,549,o),
(33,350,cs),
(33,149,o),
(152,-12,o),
(353,-12,cs)
);
}
);
width = 522;
}
);
unicode = 67;
},
{
glyphname = D;
kernLeft = "0";
kernRight = "0";
lastChange = "2026-02-09 22:29:13 +0000";
layers = (
{
layerId = m01;
shapes = (
{
closed = 1;
nodes = (
(430,-1,o),
(603,156,o),
(603,350,cs),
(603,543,o),
(430,700,o),
(217,700,c),
(56,700,l),
(56,350,l),
(56,0,l),
(217,-1,l)
);
},
{
closed = 1;
nodes = (
(221,526,l),
(327,526,o),
(429,447,o),
(429,350,c),
(429,252,o),
(327,173,o),
(221,173,c)
);
}
);
width = 624;
},
{
layerId = m002;
shapes = (
{
closed = 1;
nodes = (
(411,-1,o),
(559,156,o),
(559,350,cs),
(559,543,o),
(411,700,o),
(151,700,c),
(75,700,l),
(75,350,l),
(75,0,l),
(151,-1,l)
);
},
{
closed = 1;
nodes = (
(135,640,l),
(329,640,o),
(499,553,o),
(499,351,c),
(499,146,o),
(329,59,o),
(135,59,c)
);
}
);
width = 588;
}
);
unicode = 68;
},
{
glyphname = E;
lastChange = "2026-02-09 22:30:48 +0000";
layers = (
{
layerId = m01;
shapes = (
{
closed = 1;
nodes = (
(157,281,l),
(393,281,l),
(393,435,l),
(157,435,l)
);
},
{
closed = 1;
nodes = (
(57,539,l),
(473,539,l),
(453,701,l),
(57,701,l)
);
},
{
closed = 1;
nodes = (
(463,1,l),
(483,163,l),
(57,163,l),
(57,1,l)
);
},
{
closed = 1;
nodes = (
(56,0,l),
(230,0,l),
(230,700,l),
(56,700,l)
);
}
);
width = 506;
},
{
layerId = m002;
shapes = (
{
closed = 1;
nodes = (
(119,328,l),
(345,328,l),
(345,388,l),
(119,388,l)
);
},
{
closed = 1;
nodes = (
(89,641,l),
(415,641,l),
(405,701,l),
(89,701,l)
);
},
{
closed = 1;
nodes = (
(415,1,l),
(425,61,l),
(89,61,l),
(89,1,l)
);
},
{
closed = 1;
nodes = (
(75,0,l),
(135,0,l),
(135,700,l),
(75,700,l)
);
}
);
width = 439;
}
);
unicode = 69;
},
{
glyphname = F;
kernLeft = "0";
kernRight = FA;
lastChange = "2026-02-08 07:51:13 +0000";
layers = (
{
layerId = m01;
shapes = (
{
closed = 1;
nodes = (
(81,539,l),
(479,539,l),
(499,701,l),
(81,701,l)
);
},
{
closed = 1;
nodes = (
(80,0,l),
(254,0,l),
(254,700,l),
(80,700,l)
);
},
{
closed = 1;
nodes = (
(181,281,l),
(419,281,l),
(419,435,l),
(181,435,l)
);
}
);
width = 507;
},
{
layerId = m002;
shapes = (
{
closed = 1;
nodes = (
(107,641,l),
(487,641,l),
(497,701,l),
(107,701,l)
);
},
{
closed = 1;
nodes = (
(93,0,l),
(153,0,l),
(153,700,l),
(93,700,l)
);
},
{
closed = 1;
nodes = (
(137,338,l),
(363,338,l),
(363,398,l),
(137,398,l)
);
}
);
width = 497;
}
);
metricLeft = F;
metricRight = F;
unicode = 70;
},
{
glyphname = G;
kernLeft = "0";
kernRight = "0";
lastChange = "2026-02-08 07:51:18 +0000";
layers = (
{
layerId = m01;
shapes = (
{
closed = 1;
nodes = (
(331,287,l),
(617,287,l),
(617,449,l),
(351,449,l)
);
},
{
closed = 1;
nodes = (
(475,-12,o),
(559,20,o),
(628,73,c),
(576,350,l),
(576,297,o),
(554,249,o),
(519,215,cs),
(485,182,o),
(439,162,o),
(388,162,cs),
(284,162,o),
(200,246,o),
(200,350,cs),
(200,454,o),
(284,538,o),
(388,538,cs),
(433,538,o),
(473,523,o),
(506,497,c),
(551,673,l),
(502,698,o),
(447,712,o),
(388,712,cs),
(188,712,o),
(26,550,o),
(26,350,cs),
(26,150,o),
(188,-12,o),
(388,-12,cs)
);
},
{
closed = 1;
nodes = (
(454,1,l),
(628,73,l),
(628,449,l),
(454,449,l)
);
}
);
width = 675;
},
{
layerId = m002;
shapes = (
{
closed = 1;
nodes = (
(314,338,l),
(580,338,l),
(580,398,l),
(324,398,l)
);
},
{
closed = 1;
nodes = (
(487,-12,o),
(546,18,o),
(584,63,c),
(584,269,l),
(584,216,o),
(575,178,o),
(568,143,cs),
(557,91,o),
(495,48,o),
(401,48,cs),
(234,48,o),
(99,183,o),
(99,350,cs),
(99,517,o),
(234,652,o),
(401,652,cs),
(473,652,o),
(518,629,o),
(540,619,c),
(564,673,l),
(515,698,o),
(460,712,o),
(401,712,cs),
(201,712,o),
(39,550,o),
(39,350,cs),
(39,150,o),
(201,-12,o),
(401,-12,cs)
);
},
{
closed = 1;
nodes = (
(524,21,l),
(584,62,l),
(584,398,l),
(524,398,l)
);
}
);
width = 647;
}
);
metricLeft = G;
metricRight = G;
unicode = 71;
},
{
glyphname = H;
kernLeft = "0";
kernRight = "0";
lastChange = "2026-02-09 22:29:13 +0000";
layers = (
{
layerId = m01;
shapes = (
{
closed = 1;
nodes = (
(56,0,l),
(230,0,l),
(230,700,l),
(56,700,l)
);
},
{
closed = 1;
nodes = (
(396,0,l),
(570,0,l),
(570,700,l),
(396,700,l)
);
},
{
closed = 1;
nodes = (
(194,291,l),
(420,291,l),
(420,445,l),
(194,445,l)
);
}
);
width = 626;
},
{
layerId = m002;
shapes = (
{
closed = 1;
nodes = (
(75,0,l),
(139,0,l),
(139,700,l),
(75,700,l)
);
},
{
closed = 1;
nodes = (
(415,0,l),
(479,0,l),
(479,700,l),
(415,700,l)
);
},
{
closed = 1;
nodes = (
(127,338,l),
(429,338,l),
(429,398,l),
(127,398,l)
);
}
);
width = 554;
}
);
unicode = 72;
},
{
glyphname = I;
kernLeft = "0";
kernRight = I;
lastChange = "2026-02-09 22:29:13 +0000";
layers = (
{
layerId = m01;
shapes = (
{
closed = 1;
nodes = (
(56,0,l),
(230,0,l),
(230,700,l),
(56,700,l)
);
}
);
width = 286;
},
{
layerId = m002;
shapes = (
{
closed = 1;
nodes = (
(75,0,l),
(135,0,l),
(135,700,l),
(75,700,l)
);
}
);
width = 210;
}
);
unicode = 73;
},
{
glyphname = J;
kernLeft = "0";
kernRight = "0";
lastChange = "2026-02-09 22:29:13 +0000";
layers = (
{
layerId = m01;
shapes = (
{
closed = 1;
nodes = (
(191,-15,o),
(314,90,o),
(314,285,cs),
(314,700,l),
(140,700,l),
(140,266,ls),
(140,201,o),
(111,166,o),
(18,166,c),
(18,-15,l)
);
}
);
width = 357;
},
{
layerId = m002;
shapes = (
{
closed = 1;
nodes = (
(147,-15,o),
(209,82,o),
(209,213,cs),
(209,700,l),
(149,700,l),
(149,192,ls),
(149,112,o),
(99,45,o),
(5,45,c),
(5,-15,l)
);
}
);
width = 274;
}
);
unicode = 74;
},
{
glyphname = K;
kernLeft = "0";
kernRight = "0";
lastChange = "2026-02-09 22:29:13 +0000";
layers = (
{
layerId = m01;
shapes = (
{
closed = 1;
nodes = (
(56,0,l),
(230,0,l),
(230,700,l),
(56,700,l)
);
},
{
closed = 1;
nodes = (
(193,360,l),
(367,360,l),
(587,700,l),
(380,700,l)
);
},
{
closed = 1;
nodes = (
(583,0,l),
(367,360,l),
(193,360,l),
(380,0,l)
);
}
);
width = 595;
},
{
layerId = m002;
shapes = (
{
closed = 1;
nodes = (
(75,0,l),
(135,0,l),
(135,700,l),
(75,700,l)
);
},
{
closed = 1;
nodes = (
(123,366,l),
(198,366,l),
(479,700,l),
(399,700,l)
);
},
{
closed = 1;
nodes = (
(478,0,l),
(198,366,l),
(123,366,l),
(399,0,l)
);
}
);
width = 484;
}
);
unicode = 75;
},
{
glyphname = L;
kernLeft = "0";
kernRight = "0";
lastChange = "2026-02-09 22:29:12 +0000";
layers = (
{
layerId = m01;
shapes = (
{
closed = 1;
nodes = (
(56,0,l),
(230,0,l),
(230,700,l),
(56,700,l)
);
},
{
closed = 1;
nodes = (
(460,1,l),
(480,163,l),
(64,163,l),
(64,1,l)
);
}
);
width = 494;
},
{
layerId = m002;
shapes = (
{
closed = 1;
nodes = (
(75,0,l),
(135,0,l),
(135,700,l),
(75,700,l)
);
},
{
closed = 1;
nodes = (
(462,1,l),
(472,61,l),
(77,61,l),
(77,1,l)
);
}
);
width = 477;
}
);
unicode = 76;
},
{
glyphname = N;
kernLeft = "0";
kernRight = Napos;
lastChange = "2026-02-09 22:29:13 +0000";
layers = (
{
layerId = m01;
shapes = (
{
closed = 1;
nodes = (
(56,0,l),
(230,0,l),
(230,387,l),
(190,382,l),
(516,-40,l),
(351,0,l),
(570,0,l),
(570,700,l),
(396,700,l),
(396,313,l),
(436,318,l),
(110,740,l),
(275,700,l),
(56,700,l)
);
}
);
width = 626;
},
{
layerId = m002;
shapes = (
{
closed = 1;
nodes = (
(75,0,l),
(135,0,l),
(135,580,l),
(121,549,l),
(476,-40,l),
(313,0,l),
(475,0,l),
(475,700,l),
(415,700,l),
(415,120,l),
(429,151,l),
(74,740,l),
(237,700,l),
(75,700,l)
);
}
);
width = 550;
}
);
metricWidth = N;
unicode = 78;
},
{
glyphname = O;
kernLeft = "0";
kernRight = "0";
lastChange = "2026-02-09 22:30:44 +0000";
layers = (
{
layerId = m01;
shapes = (
{
closed = 1;
nodes = (
(549,-12,o),
(701,150,o),
(701,350,cs),
(701,550,o),
(549,712,o),
(362,712,cs),
(174,712,o),
(22,550,o),
(22,350,cs),
(22,150,o),
(174,-12,o),
(362,-12,cs)
);
},
{
closed = 1;
nodes = (
(270,162,o),
(196,246,o),
(196,350,cs),
(196,454,o),
(270,538,o),
(362,538,cs),
(453,538,o),
(527,454,o),
(527,350,cs),
(527,246,o),
(453,162,o),
(362,162,cs)
);
}
);
width = 723;
},
{
layerId = m002;
shapes = (
{
closed = 1;
nodes = (
(529,-2,o),
(673,156,o),
(673,350,cs),
(673,544,o),
(529,702,o),
(352,702,cs),
(175,702,o),
(31,544,o),
(31,350,cs),
(31,156,o),
(175,-2,o),
(352,-2,cs)
);
},
{
closed = 1;
nodes = (
(208,58,o),
(91,189,o),
(91,350,cs),
(91,511,o),
(208,642,o),
(352,642,cs),
(496,642,o),
(613,511,o),
(613,350,cs),
(613,189,o),
(496,58,o),
(352,58,cs)
);
}
);
width = 704;
}
);
unicode = 79;
},
{
glyphname = P;
kernLeft = "0";
kernRight = PA;
lastChange = "2026-02-09 22:29:13 +0000";
layers = (
{
layerId = m01;
shapes = (
{
closed = 1;
nodes = (
(298,184,ls),
(424,184,o),
(526,300,o),
(526,443,cs),
(526,585,o),
(424,701,o),
(298,701,c),
(95,700,l),
(95,184,l)
);
},
{
closed = 1;
nodes = (
(230,0,l),
(230,700,l),
(56,700,l),
(56,0,l)
);
},
{
closed = 1;
nodes = (
(232,527,l),
(276,527,l),
(318,527,o),
(352,489,o),
(352,443,cs),
(352,396,o),
(318,358,o),
(276,358,c),
(232,358,l)
);
}
);
width = 546;
},
{
layerId = m002;
shapes = (
{
closed = 1;
nodes = (
(255,234,ls),
(381,234,o),
(483,325,o),
(483,468,cs),
(483,610,o),
(381,701,o),
(255,701,c),
(76,700,l),
(76,234,l)
);
},
{
closed = 1;
nodes = (
(135,0,l),
(135,700,l),
(75,700,l),
(75,0,l)
);
},
{
closed = 1;
nodes = (
(132,641,l),
(237,641,l),
(373,641,o),
(422,558,o),
(422,468,cs),
(422,377,o),
(373,294,o),
(237,294,c),
(132,294,l)
);
}
);
width = 507;
}
);
unicode = 80;
},
{
glyphname = Q;
kernLeft = "0";
kernRight = "0";
lastChange = "2026-02-09 22:29:12 +0000";
layers = (
{
layerId = m01;
shapes = (
{
ref = O;
},
{
closed = 1;
nodes = (
(259,341,l),
(482,-18,l),
(687,-18,l),
(464,340,l)
);
}
);
width = 724;
},
{
layerId = m002;
shapes = (
{
pos = (18,0);
ref = O;
},
{
closed = 1;
nodes = (
(371,356,l),
(594,-3,l),
(659,-3,l),
(436,355,l)
);
}
);
width = 708;
}
);
unicode = 81;
},
{
glyphname = R;
lastChange = "2026-02-09 22:30:57 +0000";
layers = (
{
layerId = m01;
shapes = (
{
closed = 1;
nodes = (
(332,263,l),
(453,263,o),
(551,361,o),
(551,482,cs),
(551,603,o),
(453,701,o),
(332,701,c),
(93,700,l),
(93,263,l)
);
},
{
closed = 1;
nodes = (
(230,0,l),
(230,700,l),
(56,700,l),
(56,0,l)
);
},
{
closed = 1;
nodes = (
(229,547,l),
(278,547,ls),
(325,547,o),
(362,510,o),
(362,463,c),
(362,416,o),
(325,379,o),
(278,379,c),
(229,379,l)
);
},
{
closed = 1;
nodes = (
(579,0,l),
(409,330,l),
(221,330,l),
(383,0,l)
);
}
);
width = 591;
},
{
layerId = m002;
shapes = (
{
closed = 1;
nodes = (
(254,263,l),
(375,263,o),
(473,361,o),
(473,482,c),
(473,603,o),
(375,701,o),
(254,701,c),
(95,700,l),
(95,263,l)
);
},
{
closed = 1;
nodes = (
(135,0,l),
(135,700,l),
(75,700,l),
(75,0,l)
);
},
{
closed = 1;
nodes = (
(135,640,l),
(254,640,ls),
(343,640,o),
(413,571,o),
(413,482,c),
(413,392,o),
(343,323,o),
(254,323,c),
(135,323,l)
);
},
{
closed = 1;
nodes = (
(476,0,l),
(313,321,l),
(251,321,l),
(406,0,l)
);
}
);
width = 507;
}
);
unicode = 82;
},
{
glyphname = S;
lastChange = "2026-02-09 22:30:26 +0000";
layers = (
{
layerId = m01;
shapes = (
{
closed = 1;
nodes = (
(418,20,o),
(503,172,o),
(419,309,cs),
(372,387,o),
(286,416,o),
(209,464,cs),
(189,477,o),
(174,496,o),
(184,517,cs),
(217,594,o),
(357,540,o),
(399,489,c),
(420,657,l),
(363,708,o),
(282,716,o),
(205,707,cs),
(46,689,o),
(-32,537,o),
(53,401,cs),
(96,334,o),
(171,303,o),
(238,261,cs),
(269,242,o),
(301,214,o),
(282,183,cs),
(238,114,o),
(119,154,o),
(76,217,c),
(54,36,l),
(111,-10,o),
(187,-15,o),
(259,-4,cs)
);
}
);
width = 471;
},
{
layerId = m002;
shapes = (
{
closed = 1;
nodes = (
(311,-29,o),
(461,124,o),
(362,263,cs),
(329,309,o),
(274,348,o),
(203,383,cs),
(167,401,o),
(136,425,o),
(117,451,cs),
(29,574,o),
(180,738,o),
(362,592,c),
(383,647,l),
(348,678,o),
(296,702,o),
(248,707,cs),
(102,722,o),
(-12,583,o),
(42,456,cs),
(64,404,o),
(103,369,o),
(201,316,cs),
(274,276,o),
(297,254,o),
(315,227,cs),
(388,118,o),
(217,-27,o),
(59,114,c),
(37,56,l),
(76,25,o),
(121,3,o),
(162,-4,cs)
);
}
);
width = 420;
}
);
unicode = 83;
},
{
glyphname = T;
lastChange = "2026-02-09 22:29:12 +0000";
layers = (
{
layerId = m01;
shapes = (
{
closed = 1;
nodes = (
(171,0,l),
(345,0,l),
(345,700,l),
(171,700,l)
);
},
{
closed = 1;
nodes = (
(17,539,l),
(489,539,l),
(489,701,l),
(17,701,l)
);
}
);
width = 506;
},
{
layerId = m002;
shapes = (
{
closed = 1;
nodes = (
(176,0,l),
(236,0,l),
(236,700,l),
(176,700,l)
);
},
{
closed = 1;
nodes = (
(5,641,l),
(407,641,l),
(407,701,l),
(5,701,l)
);
}
);
width = 412;
}
);
unicode = 84;
},
{
glyphname = U;
kernLeft = "0";
kernRight = "0";
lastChange = "2026-02-09 22:29:12 +0000";
layers = (
{
layerId = m01;
shapes = (
{
closed = 1;
nodes = (
(44,285,ls),
(44,90,o),
(167,-15,o),
(301,-15,cs),
(301,-15,ls),
(435,-15,o),
(558,90,o),
(558,285,cs),
(558,700,l),
(384,700,l),
(384,266,ls),
(384,130,o),
(218,130,o),
(218,266,cs),
(218,700,l),
(44,700,l)
);
}
);
width = 602;
},
{
layerId = m002;
shapes = (
{
closed = 1;
nodes = (
(64,214,ls),
(64,90,o),
(146,-12,o),
(264,-12,cs),
(264,-12,ls),
(382,-12,o),
(464,90,o),
(464,214,cs),
(464,700,l),
(404,700,l),
(404,217,ls),
(404,-8,o),
(124,-8,o),
(124,217,cs),
(124,700,l),
(64,700,l)
);
}
);
width = 528;
}
);
unicode = 85;
},
{
color = 0;
glyphname = W;
kernLeft = "0";
kernRight = "0";
lastChange = "2026-02-09 22:29:13 +0000";
layers = (
{
layerId = m01;
shapes = (
{
closed = 1;
nodes = (
(117,0,l),
(341,0,l),
(427,491,l),
(381,491,l),
(466,0,l),
(693,0,l),
(793,700,l),
(618,700,l),
(573,274,l),
(481,700,l),
(327,700,l),
(237,278,l),
(192,700,l),
(17,700,l)
);
}
);
width = 810;
},
{
layerId = m002;
shapes = (
{
closed = 1;
nodes = (
(121,0,l),
(165,0,l),
(382,571,l),
(356,571,l),
(573,0,l),
(617,0,l),
(707,700,l),
(642,700,l),
(580,154,l),
(384,640,l),
(350,640,l),
(156,154,l),
(96,700,l),
(31,700,l)
);
}
);
width = 737;
}
);
unicode = 87;
},
{
glyphname = X;
kernLeft = "0";
kernRight = "0";
lastChange = "2026-02-09 22:29:12 +0000";
layers = (
{
layerId = m01;
shapes = (
{
closed = 1;
nodes = (
(226,308,l),
(226,389,l),
(14,0,l),
(212,0,l),
(300,210,l),
(261,209,l),
(351,0,l),
(549,0,l),
(336,388,l),
(337,307,l),
(549,700,l),
(351,700,l),
(260,487,l),
(300,487,l),
(209,700,l),
(10,700,l)
);
}
);
width = 559;
},
{
layerId = m002;
shapes = (
{
closed = 1;
nodes = (
(187,308,l),
(187,389,l),
(19,0,l),
(80,0,l),
(238,349,l),
(199,349,l),
(349,0,l),
(407,0,l),
(248,388,l),
(249,307,l),
(407,700,l),
(349,700,l),
(198,347,l),
(238,347,l),
(77,700,l),
(15,700,l)
);
}
);
width = 424;
}
);
unicode = 88;
},
{
glyphname = Y;
lastChange = "2026-02-09 22:29:12 +0000";
layers = (
{
layerId = m01;
shapes = (
{
closed = 1;
nodes = (
(223,268,l),
(334,267,l),
(546,700,l),
(348,700,l),
(257,447,l),
(297,447,l),
(206,700,l),
(7,700,l)
);
},
{
closed = 1;
nodes = (
(190,0,l),
(364,0,l),
(364,410,l),
(190,410,l)
);
}
);
width = 552;
},
{
layerId = m002;
shapes = (
{
closed = 1;
nodes = (
(188,338,l),
(246,337,l),
(428,700,l),
(364,700,l),
(196,369,l),
(236,369,l),
(68,700,l),
(3,700,l)
);
},
{
closed = 1;
nodes = (
(186,0,l),
(246,0,l),
(246,390,l),
(186,390,l)
);
}
);
width = 431;
}
);
unicode = 89;
},
{
glyphname = Z;
kernLeft = "0";
kernRight = "0";
lastChange = "2026-02-09 22:29:12 +0000";
layers = (
{
layerId = m01;
shapes = (
{
closed = 1;
nodes = (
(22,538,l),
(315,538,l),
(299,573,l),
(23,52,l),
(22,0,l),
(516,0,l),
(536,162,l),
(242,162,l),
(258,127,l),
(536,648,l),
(536,700,l),
(42,700,l)
);
}
);
width = 558;
},
{
layerId = m002;
shapes = (
{
closed = 1;
nodes = (
(14,640,l),
(352,640,l),
(338,653,l),
(16,0,l),
(14,0,l),
(423,0,l),
(433,60,l),
(91,60,l),
(107,47,l),
(428,700,l),
(428,700,l),
(24,700,l)
);
}
);
width = 446;
}
);
unicode = 90;
},
{
glyphname = S.ss03;
kernLeft = "0";
kernRight = "0";
lastChange = "2026-02-09 22:29:12 +0000";
layers = (
{
layerId = m01;
shapes = (
{
closed = 1;
nodes = (
(255,-1,o),
(346,91,o),
(346,193,cs),
(346,266,o),
(300,357,o),
(229,453,cs),
(167,536,o),
(278,577,o),
(351,540,c),
(351,700,l),
(321,708,o),
(289,711,o),
(258,709,cs),
(120,700,o),
(29,605,o),
(36,486,cs),
(42,386,o),
(107,340,o),
(158,254,cs),
(204,177,o),
(116,141,o),
(29,160,c),
(29,0,l),
(63,-9,o),
(98,-11,o),
(133,-9,cs)
);
}
);
width = 380;
},
{
layerId = m002;
shapes = (
{
closed = 1;
nodes = (
(241,-1,o),
(316,84,o),
(298,193,cs),
(275,313,o),
(163,371,o),
(109,481,cs),
(46,608,o),
(162,674,o),
(299,637,c),
(299,700,l),
(272,708,o),
(243,710,o),
(215,709,cs),
(82,704,o),
(-6,611,o),
(40,486,cs),
(83,368,o),
(200,313,o),
(236,193,cs),
(271,75,o),
(153,21,o),
(37,63,c),
(37,0,l),
(68,-9,o),
(99,-11,o),
(131,-9,cs)
);
}
);
width = 331;
}
);
},
{
glyphname = a;
kernLeft = "0";
kernRight = "0";
lastChange = "2026-02-09 22:29:06 +0000";
layers = (
{
layerId = m01;
shapes = (
{
closed = 1;
nodes = (
(219,-4,o),
(272,6,o),
(289,74,c),
(288,53,o),
(288,13,o),
(288,0,c),
(460,0,l),
(461,134,o),
(460,119,o),
(461,253,c),
(461,392,o),
(407,532,o),
(250,549,cs),
(203,554,o),
(124,547,o),
(50,519,c),
(81,373,l),
(121,400,o),
(199,406,o),
(233,400,cs),
(259,395,o),
(296,373,o),
(295,338,cs),
(295,332,o),
(297,334,o),
(297,324,c),
(273,348,o),
(230,360,o),
(193,360,cs),
(97,360,o),
(25,274,o),
(25,172,cs),
(25,69,o),
(82,-4,o),
(179,-4,cs)
);
},
{
closed = 1;
nodes = (
(224,129,o),
(195,142,o),
(195,182,cs),
(195,221,o),
(224,234,o),
(250,234,cs),
(275,234,o),
(304,219,o),
(304,182,c),
(304,144,o),
(275,129,o),
(250,129,cs)
);
}
);
width = 495;
},
{
layerId = m002;
shapes = (
{
closed = 1;
nodes = (
(325,-4,o),
(381,23,o),
(419,69,c),
(415,62,o),
(409,45,o),
(409,0,c),
(469,0,l),
(470,164,o),
(469,156,o),
(470,320,c),
(470,436,o),
(394,526,o),
(280,546,cs),
(231,555,o),
(154,539,o),
(87,506,c),
(117,453,l),
(181,489,o),
(263,496,o),
(321,471,cs),
(359,454,o),
(391,421,o),
(400,388,cs),
(410,356,o),
(407,338,o),
(406,318,c),
(385,368,o),
(325,396,o),
(264,396,cs),
(134,396,o),
(34,313,o),
(34,195,cs),
(34,78,o),
(134,-4,o),
(264,-4,cs)
);
},
{
closed = 1;
nodes = (
(161,57,o),
(94,117,o),
(94,195,cs),
(94,275,o),
(161,336,o),
(252,336,cs),
(341,336,o),
(409,275,o),
(409,195,c),
(409,117,o),
(341,57,o),
(252,57,cs)
);
}
);
width = 513;
}
);
metricLeft = o;
metricRight = h;
unicode = 97;
},
{
glyphname = c;
kernLeft = "0";
kernRight = "0";
lastChange = "2026-02-09 22:29:06 +0000";
layers = (
{
layerId = m01;
shapes = (
{
closed = 1;
nodes = (
(25,109,o),
(142,-8,o),
(307,-8,cs),
(342,-8,o),
(395,-3,o),
(439,32,c),
(399,197,l),
(371,176,o),
(331,172,o),
(307,172,cs),
(241,172,o),
(199,212,o),
(199,269,cs),
(199,326,o),
(241,365,o),
(307,365,cs),
(332,365,o),
(372,362,o),
(399,341,c),
(439,506,l),
(394,540,o),
(342,545,o),
(307,545,cs),
(142,545,o),
(25,429,o),
(25,269,cs)
);
}
);
width = 473;
},
{
layerId = m002;
shapes = (
{
closed = 1;
nodes = (
(37,107,o),
(155,-6,o),
(317,0,cs),
(364,1,o),
(410,14,o),
(449,40,c),
(449,112,l),
(406,70,o),
(348,58,o),
(288,61,cs),
(173,66,o),
(95,155,o),
(95,270,cs),
(95,386,o),
(172,473,o),
(288,480,cs),
(348,484,o),
(406,470,o),
(449,427,c),
(450,497,l),
(408,527,o),
(359,541,o),
(308,541,cs),
(150,541,o),
(31,427,o),
(34,269,cs)
);
}
);
width = 493;
}
);
metricLeft = o;
metricRight = h;
unicode = 99;
},
{
glyphname = d;
kernLeft = "0";
kernRight = "0";
lastChange = "2026-02-09 22:29:12 +0000";
layers = (
{
layerId = m01;
shapes = (
{
closed = 1;
nodes = (
(400,539,l),
(574,539,l),
(575,699,l),
(400,699,l)
);
},
{
pos = (-5,0);
ref = a.ss01;
}
);
width = 621;
},
{
layerId = m002;
shapes = (
{
closed = 1;
nodes = (
(457,521,l),
(516,521,l),
(517,699,l),
(458,699,l)
);
},
{
pos = (-10,0);
ref = a.ss01;
}
);
width = 581;
}
);
unicode = 100;
},
{
glyphname = e;
kernLeft = "0";
kernRight = "0";
lastChange = "2026-02-09 22:29:04 +0000";
layers = (
{
layerId = m01;
shapes = (
{
closed = 1;
nodes = (
(377,-9,o),
(458,17,o),
(521,49,c),
(477,195,l),
(432,163,o),
(358,142,o),
(301,148,cs),
(247,154,o),
(207,183,o),
(184,220,c),
(535,220,l),
(540,270,ls),
(552,389,o),
(445,547,o),
(280,547,cs),
(141,547,o),
(25,430,o),
(25,270,cs),
(25,110,o),
(140,-3,o),
(300,-7,cs)
);
},
{
closed = 1;
nodes = (
(210,332,l),
(219,371,o),
(248,390,o),
(281,390,c),
(314,390,o),
(343,371,o),
(352,332,c)
);
}
);
width = 566;
},
{
layerId = m002;
shapes = (
{
closed = 1;
nodes = (
(368,0,o),
(431,26,o),
(500,82,c),
(464,131,l),
(420,90,o),
(352,60,o),
(294,60,cs),
(189,60,o),
(101,141,o),
(97,240,c),
(523,240,l),
(527,270,ls),
(544,399,o),
(423,537,o),
(291,537,cs),
(154,537,o),
(34,422,o),
(34,270,cs),
(34,117,o),
(154,0,o),
(301,0,cs)
);
},
{
closed = 1;
nodes = (
(96,300,l),
(118,414,o),
(186,477,o),
(287,477,cs),
(383,477,o),
(454,408,o),
(470,300,c)
);
}
);
width = 559;
}
);
unicode = 101;
},
{
glyphname = f;
kernLeft = "0";
kernRight = "0";
lastChange = "2026-02-09 22:29:04 +0000";
layers = (
{
layerId = m01;
shapes = (
{
closed = 1;
nodes = (
(181,784,o),
(92,715,o),
(85,557,c),
(82,452,o),
(80,163,o),
(80,0,c),
(252,0,l),
(255,542,ls),
(255,595,o),
(279,609,o),
(317,613,cs),
(336,615,o),
(353,613,o),
(372,613,c),
(352,787,l),
(329,787,l)
);
},
{
closed = 1;
nodes = (
(17,379,l),
(343,379,l),
(363,541,l),
(17,541,l)
);
}
);
width = 394;
},
{
layerId = m002;
shapes = (
{
closed = 1;
nodes = (
(139,744,o),
(88,670,o),
(88,569,c),
(85,464,o),
(84,163,o),
(84,0,c),
(144,0,l),
(148,532,ls),
(148,555,o),
(140,687,o),
(245,687,cs),
(254,687,o),
(261,687,o),
(280,687,c),
(270,747,l),
(237,747,l)
);
},
{
closed = 1;
nodes = (
(15,479,l),
(258,479,l),
(259,539,l),
(15,539,l)
);
}
);
width = 293;
}
);
unicode = 102;
},
{
glyphname = g;
kernLeft = "0";
kernRight = "0";
lastChange = "2026-02-09 22:29:04 +0000";
layers = (
{
layerId = m01;
shapes = (
{
closed = 1;
nodes = (
(122,557,o),
(20,432,o),
(20,271,cs),
(20,110,o),
(134,16,o),
(257,16,cs),
(333,16,o),
(386,57,o),
(416,139,c),
(414,97,o),
(416,-7,o),
(323,-31,cs),
(246,-51,o),
(172,-32,o),
(114,-12,c),
(95,-176,l),
(207,-205,o),
(329,-236,o),
(461,-127,cs),
(621,5,o),
(575,184,o),
(574,316,c),
(573,539,l),
(386,539,l),
(386,438,l),
(369,500,o),
(317,538,o),
(257,544,cs)
);
},
{
closed = 1;
nodes = (
(357,386,o),
(400,339,o),
(400,277,c),
(400,214,o),
(357,167,o),
(297,167,cs),
(236,167,o),
(195,214,o),
(195,277,cs),
(195,339,o),
(236,386,o),
(297,386,cs)
);
}
);
width = 619;
},
{
layerId = m002;
shapes = (
{
closed = 1;
nodes = (
(123,544,o),
(29,422,o),
(29,271,cs),
(29,123,o),
(116,-3,o),
(264,-3,cs),
(342,-3,o),
(409,29,o),
(442,99,c),
(437,-3,o),
(413,-89,o),
(317,-124,cs),
(240,-152,o),
(164,-125,o),
(96,-78,c),
(75,-136,l),
(158,-187,o),
(247,-216,o),
(338,-181,cs),
(538,-104,o),
(506,101,o),
(504,316,c),
(503,539,l),
(443,539,l),
(443,438,l),
(420,510,o),
(349,541,o),
(274,542,cs)
);
},
{
closed = 1;
nodes = (
(380,484,o),
(451,391,o),
(451,277,c),
(451,158,o),
(385,55,o),
(266,55,cs),
(149,55,o),
(89,160,o),
(89,277,cs),
(89,390,o),
(153,484,o),
(266,484,cs)
);
}
);
width = 565;
}
);
unicode = 103;
},
{
glyphname = h;
kernLeft = "0";
kernRight = "0";
lastChange = "2026-02-09 22:29:04 +0000";
layers = (
{
layerId = m01;
shapes = (
{
closed = 1;
nodes = (
(231,271,ls),
(231,334,o),
(259,381,o),
(319,381,cs),
(380,381,o),
(406,334,o),
(406,271,cs),
(406,0,l),
(581,0,l),
(581,269,ls),
(581,430,o),
(507,544,o),
(380,544,cs),
(308,544,o),
(234,484,o),
(222,426,c),
(231,502,o),
(242,512,o),
(242,699,c),
(55,699,l),
(58,0,l),
(233,0,l)
);
}
);
width = 615;
},
{
layerId = m002;
shapes = (
{
closed = 1;
nodes = (
(135,292,ls),
(134,402,o),
(202,485,o),
(305,485,cs),
(408,485,o),
(469,407,o),
(469,292,cs),
(469,0,l),
(528,0,l),
(528,282,ls),
(528,431,o),
(420,545,o),
(304,545,cs),
(212,545,o),
(134,480,o),
(114,412,c),
(130,489,o),
(134,537,o),
(134,699,c),
(73,699,l),
(76,0,l),
(138,0,l)
);
}
);
width = 571;
}
);
unicode = 104;
},
{
glyphname = i;
kernLeft = "0";
kernRight = "0";
lastChange = "2026-02-09 22:29:04 +0000";
layers = (
{
layerId = m01;
shapes = (
{
pos = (-29,603);
ref = period;
scale = (1.1291,1.1291);
},
{
closed = 1;
nodes = (
(52,0,l),
(226,0,l),
(226,540,l),
(52,540,l)
);
}
);
width = 279;
},
{
layerId = m002;
shapes = (
{
pos = (-35,635);
ref = period;
scale = (1.1291,1.1291);
},
{
closed = 1;
nodes = (
(71,0,l),
(131,0,l),
(131,540,l),
(71,540,l)
);
}
);
width = 205;
}
);
unicode = 105;
},
{
glyphname = igrave;
lastChange = "2026-02-09 22:29:06 +0000";
layers = (
{
layerId = m01;
shapes = (
{
pos = (15,0);
ref = i;
},
{
attr = {
mask = 1;
};
closed = 1;
nodes = (
(67,570,l),
(313,561,l),
(283,779,l),
(69,779,l)
);
},
{
pos = (18,0);
ref = "gravecomb-x";
}
);
width = 294;
},
{
layerId = m002;
shapes = (
{
pos = (6,0);
ref = i;
},
{
attr = {
mask = 1;
};
closed = 1;
nodes = (
(60,587,l),
(211,587,l),
(211,751,l),
(60,751,l)
);
},
{
pos = (-27,0);
ref = "gravecomb-x";
}
);
width = 221;
}
);
metricLeft = i;
metricRight = i;
unicode = 236;
},
{
glyphname = j;
kernLeft = "0";
kernRight = "0";
lastChange = "2026-02-09 22:29:04 +0000";
layers = (
{
layerId = m01;
shapes = (
{
pos = (54,603);
ref = period;
scale = (1.1291,1.1291);
},
{
closed = 1;
nodes = (
(187,-183,o),
(310,-78,o),
(310,117,cs),
(310,540,l),
(136,540,l),
(136,98,ls),
(136,33,o),
(107,-2,o),
(14,-2,c),
(14,-183,l)
);
}
);
width = 354;
},
{
layerId = m002;
shapes = (
{
pos = (36,637);
ref = period;
scale = (1.1291,1.1291);
},
{
closed = 1;
nodes = (
(92,-183,o),
(205,-137,o),
(205,20,cs),
(205,540,l),
(145,540,l),
(145,13,ls),
(145,-99,o),
(65,-121,o),
(3,-121,c),
(3,-183,l)
);
}
);
width = 273;
}
);
unicode = 106;
},
{
glyphname = jacute;
lastChange = "2026-02-09 22:29:06 +0000";
layers = (
{
layerId = m01;
shapes = (
{
ref = j;
},
{
attr = {
mask = 1;
};
closed = 1;
nodes = (
(333,566,l),
(333,791,l),
(58,791,l),
(58,566,l)
);
},
{
pos = (49,0);
ref = acutex;
}
);
width = 359;
},
{
layerId = m002;
shapes = (
{
ref = j;
},
{
attr = {
mask = 1;
};
closed = 1;
nodes = (
(113,616,l),
(244,616,l),
(244,752,l),
(113,752,l)
);
},
{
alignment = -1;
pos = (34,0);
ref = acutex;
}
);
width = 289;
}
);
metricLeft = j;
metricRight = j;
},
{
glyphname = k;
kernLeft = "0";
kernRight = "0";
lastChange = "2026-02-09 22:29:04 +0000";
layers = (
{
layerId = m01;
shapes = (
{
closed = 1;
nodes = (
(56,0,l),
(230,0,l),
(230,700,l),
(200,700,o),
(85,700,o),
(56,700,c)
);
},
{
closed = 1;
nodes = (
(176,260,l),
(387,260,l),
(578,540,l),
(548,540,o),
(396,540,o),
(367,540,c)
);
},
{
closed = 1;
nodes = (
(404,0,o),
(547,0,o),
(577,0,c),
(407,290,l),
(205,290,l),
(375,0,l)
);
}
);
width = 589;
},
{
layerId = m002;
shapes = (
{
closed = 1;
nodes = (
(75,0,l),
(135,0,l),
(135,700,l),
(125,700,o),
(85,700,o),
(75,700,c)
);
},
{
closed = 1;
nodes = (
(77,260,l),
(128,226,l),
(425,540,l),
(395,540,o),
(238,540,o),
(342,540,c)
);
},
{
closed = 1;
nodes = (
(435,0,o),
(450,0,o),
(480,0,c),
(236,339,l),
(162,339,l),
(406,0,l)
);
}
);
width = 482;
}
);
unicode = 107;
},
{
glyphname = l;
kernLeft = "0";
kernRight = "0";
lastChange = "2026-02-09 22:29:04 +0000";
layers = (
{
layerId = m01;
shapes = (
{
closed = 1;
nodes = (
(56,0,l),
(230,0,l),
(230,700,l),
(200,700,o),
(85,700,o),
(56,700,c)
);
}
);
width = 286;
},
{
layerId = m002;
shapes = (
{
closed = 1;
nodes = (
(75,0,l),
(135,0,l),
(135,700,l),
(125,700,o),
(85,700,o),
(75,700,c)
);
}
);
width = 210;
}
);
unicode = 108;
},
{
glyphname = m;
kernLeft = "0";
kernRight = "0";
lastChange = "2026-02-09 22:29:04 +0000";
layers = (
{
layerId = m01;
shapes = (
{
closed = 1;
nodes = (
(231,271,ls),
(231,334,o),
(274,381,o),
(334,381,cs),
(392,381,o),
(432,338,o),
(436,281,c),
(438,0,l),
(611,0,l),
(611,271,ls),
(599,334,o),
(654,381,o),
(714,381,cs),
(775,381,o),
(816,334,o),
(816,271,cs),
(816,0,l),
(991,0,l),
(991,269,ls),
(991,430,o),
(881,544,o),
(754,544,cs),
(707,544,o),
(625,528,o),
(564,439,c),
(520,510,o),
(450,553,o),
(374,544,cs),
(317,537,o),
(266,500,o),
(242,431,c),
(242,467,o),
(242,504,o),
(242,540,c),
(55,540,l),
(58,0,l),
(233,0,l)
);
}
);
width = 1032;
},
{
layerId = m002;
shapes = (
{
closed = 1;
nodes = (
(134,269,ls),
(133,391,o),
(198,484,o),
(316,484,cs),
(420,484,o),
(481,410,o),
(494,295,c),
(497,0,l),
(557,0,l),
(556,296,l),
(556,404,o),
(628,484,o),
(737,484,cs),
(854,484,o),
(918,388,o),
(918,249,cs),
(918,0,l),
(979,0,l),
(979,249,ls),
(979,427,o),
(891,544,o),
(728,544,cs),
(646,544,o),
(552,477,o),
(527,408,c),
(488,494,o),
(414,544,o),
(307,544,cs),
(222,544,o),
(134,481,o),
(114,411,c),
(117,427,o),
(133,484,o),
(133,540,c),
(73,540,l),
(76,0,l),
(136,0,l)
);
}
);
width = 1035;
}
);
unicode = 109;
},
{
glyphname = n;
kernLeft = "0";
kernRight = "0";
lastChange = "2026-02-09 22:29:03 +0000";
layers = (
{
layerId = m01;
shapes = (
{
closed = 1;
nodes = (
(231,271,ls),
(231,334,o),
(259,381,o),
(319,381,cs),
(380,381,o),
(406,334,o),
(406,271,cs),
(406,0,l),
(581,0,l),
(581,90,o),
(581,179,o),
(581,269,cs),
(581,430,o),
(497,558,o),
(374,544,cs),
(327,539,o),
(261,511,o),
(232,430,c),
(242,466,o),
(242,504,o),
(242,540,c),
(55,540,l),
(58,0,l),
(233,0,l)
);
},
{
closed = 0;
nodes = (
(55,540,l)
);
}
);
width = 623;
},
{
layerId = m002;
shapes = (
{
closed = 1;
nodes = (
(134,269,ls),
(133,391,o),
(193,484,o),
(301,484,cs),
(418,484,o),
(467,388,o),
(467,249,cs),
(467,0,l),
(528,0,l),
(528,83,o),
(528,166,o),
(528,249,cs),
(528,427,o),
(440,544,o),
(307,544,cs),
(222,544,o),
(134,481,o),
(114,411,c),
(117,427,o),
(133,484,o),
(133,540,c),
(73,540,l),
(76,0,l),
(136,0,l)
);
},
{
closed = 0;
nodes = (
(73,540,l)
);
}
);
width = 584;
}
);
unicode = 110;
},
{
glyphname = o;
kernLeft = "0";
kernRight = "0";
lastChange = "2026-02-09 22:29:04 +0000";
layers = (
{
layerId = m01;
shapes = (
{
closed = 1;
nodes = (
(429,-4,o),
(546,120,o),
(546,273,cs),
(546,425,o),
(429,549,o),
(286,549,cs),
(142,549,o),
(25,425,o),
(25,273,cs),
(25,120,o),
(142,-4,o),
(286,-4,cs)
);
},
{
closed = 1;
nodes = (
(237,170,o),
(199,215,o),
(199,273,cs),
(199,330,o),
(237,375,o),
(286,375,cs),
(334,375,o),
(372,330,o),
(372,273,cs),
(372,215,o),
(334,170,o),
(286,170,cs)
);
}
);
width = 571;
},
{
layerId = m002;
shapes = (
{
closed = 1;
nodes = (
(435,-1,o),
(551,120,o),
(551,270,cs),
(551,419,o),
(435,540,o),
(293,540,cs),
(150,540,o),
(34,419,o),
(34,270,cs),
(34,120,o),
(150,-1,o),
(293,-1,cs)
);
},
{
closed = 1;
nodes = (
(181,59,o),
(94,152,o),
(94,271,cs),
(94,387,o),
(181,480,o),
(294,480,c),
(404,480,o),
(491,387,o),
(491,271,cs),
(491,152,o),
(404,59,o),
(294,59,cs)
);
}
);
width = 585;
}
);
unicode = 111;
},
{
glyphname = r;
kernLeft = "0";
kernRight = "0";
lastChange = "2026-02-09 22:29:04 +0000";
layers = (
{
layerId = m01;
shapes = (
{
closed = 1;
nodes = (
(231,268,ls),
(231,331,o),
(274,372,o),
(321,379,cs),
(353,384,o),
(384,374,o),
(412,361,c),
(438,535,l),
(424,541,o),
(397,548,o),
(363,545,cs),
(287,538,o),
(244,484,o),
(232,427,c),
(232,540,l),
(55,540,l),
(58,0,l),
(233,0,l)
);
}
);
width = 455;
},
{
layerId = m002;
shapes = (
{
closed = 1;
nodes = (
(136,286,ls),
(135,392,o),
(196,453,o),
(252,475,cs),
(294,490,o),
(334,487,o),
(370,464,c),
(379,535,l),
(362,541,o),
(330,548,o),
(290,545,cs),
(199,538,o),
(148,484,o),
(134,427,c),
(134,540,l),
(73,540,l),
(76,0,l),
(138,0,l)
);
}
);
width = 389;
}
);
unicode = 114;
},
{
glyphname = s;
kernLeft = "0";
kernRight = "0";
lastChange = "2026-02-09 22:29:04 +0000";
layers = (
{
layerId = m01;
shapes = (
{
closed = 1;
nodes = (
(191,401,o),
(217,401,cs),
(238,401,o),
(263,386,o),
(276,365,c),
(377,463,l),
(343,515,o),
(279,547,o),
(211,547,cs),
(109,547,o),
(22,467,o),
(24,375,cs),
(26,304,o),
(81,250,o),
(182,215,cs),
(239,196,o),
(225,135,o),
(182,146,cs),
(160,152,o),
(135,169,o),
(123,184,c),
(22,74,l),
(73,19,o),
(137,-9,o),
(203,-6,cs),
(309,-1,o),
(388,76,o),
(378,179,cs),
(371,240,o),
(320,291,o),
(211,346,cs),
(159,372,o)
);
}
);
width = 402;
},
{
layerId = m002;
shapes = (
{
closed = 1;
nodes = (
(77,466,o),
(187,485,cs),
(245,495,o),
(289,478,o),
(338,428,c),
(377,463,l),
(343,515,o),
(279,547,o),
(211,547,cs),
(107,547,o),
(27,462,o),
(49,375,cs),
(65,315,o),
(119,270,o),
(192,255,cs),
(342,225,o),
(354,90,o),
(222,57,cs),
(168,43,o),
(87,75,o),
(69,116,c),
(22,74,l),
(79,13,o),
(134,-11,o),
(203,-6,cs),
(319,3,o),
(389,82,o),
(368,179,cs),
(354,247,o),
(296,293,o),
(196,316,cs),
(84,341,o)
);
}
);
width = 409;
}
);
unicode = 115;
},
{
glyphname = t;
kernLeft = "0";
kernRight = "0";
lastChange = "2026-02-09 22:29:04 +0000";
layers = (
{
layerId = m01;
shapes = (
{
closed = 1;
nodes = (
(363,-7,l),
(373,167,l),
(354,167,o),
(337,165,o),
(318,167,cs),
(280,171,o),
(256,185,o),
(256,238,cs),
(253,701,l),
(81,701,l),
(81,538,o),
(83,328,o),
(86,223,c),
(93,65,o),
(182,-4,o),
(330,-7,c)
);
},
{
closed = 1;
nodes = (
(364,379,l),
(374,541,l),
(18,541,l),
(18,379,l)
);
}
);
width = 404;
},
{
layerId = m002;
shapes = (
{
closed = 1;
nodes = (
(275,-5,l),
(285,55,l),
(266,55,o),
(259,55,o),
(250,55,cs),
(145,55,o),
(153,187,o),
(153,210,cs),
(149,702,l),
(89,702,l),
(89,539,o),
(90,278,o),
(93,173,c),
(93,72,o),
(144,-2,o),
(242,-5,c)
);
},
{
closed = 1;
nodes = (
(274,478,l),
(273,538,l),
(10,538,l),
(10,478,l)
);
}
);
width = 302;
}
);
unicode = 116;
},
{
glyphname = v;
kernLeft = "0";
kernRight = "0";
lastChange = "2026-02-09 22:29:04 +0000";
layers = (
{
layerId = m01;
shapes = (
{
closed = 1;
nodes = (
(201,0,l),
(375,0,l),
(566,540,l),
(537,540,o),
(422,540,o),
(392,540,c),
(288,206,l),
(184,540,l),
(154,540,o),
(39,540,o),
(10,540,c)
);
}
);
width = 576;
},
{
layerId = m002;
shapes = (
{
closed = 1;
nodes = (
(202,0,l),
(276,0,l),
(467,540,l),
(438,540,o),
(433,540,o),
(403,540,c),
(239,78,l),
(75,540,l),
(45,540,o),
(40,540,o),
(11,540,c)
);
}
);
width = 478;
}
);
unicode = 118;
},
{
glyphname = w;
kernLeft = "0";
kernRight = "0";
lastChange = "2026-02-09 22:29:12 +0000";
layers = (
{
layerId = m01;
shapes = (
{
closed = 1;
nodes = (
(182,0,l),
(316,0,l),
(420,274,l),
(524,0,l),
(658,0,l),
(829,540,l),
(800,540,o),
(685,540,o),
(655,540,c),
(591,266,l),
(487,540,l),
(458,540,o),
(383,540,o),
(353,540,c),
(249,266,l),
(185,540,l),
(155,540,o),
(40,540,o),
(11,540,c)
);
}
);
width = 840;
},
{
layerId = m002;
shapes = (
{
closed = 1;
nodes = (
(202,0,l),
(276,0,l),
(415,450,l),
(554,0,l),
(628,0,l),
(819,540,l),
(790,540,o),
(785,540,o),
(755,540,c),
(591,78,l),
(447,540,l),
(418,540,o),
(413,540,o),
(383,540,c),
(239,78,l),
(75,540,l),
(45,540,o),
(40,540,o),
(11,540,c)
);
}
);
width = 830;
}
);
unicode = 119;
},
{
glyphname = x;
kernLeft = "0";
kernRight = "0";
lastChange = "2026-02-09 22:29:13 +0000";
layers = (
{
layerId = m01;
shapes = (
{
closed = 1;
nodes = (
(191,270,l),
(10,0,l),
(224,0,l),
(288,137,l),
(352,0,l),
(566,0,l),
(385,270,l),
(556,540,l),
(527,540,o),
(385,540,o),
(355,540,c),
(288,403,l),
(223,540,l),
(193,540,o),
(39,540,o),
(10,540,c)
);
}
);
width = 576;
},
{
layerId = m002;
shapes = (
{
closed = 1;
nodes = (
(193,270,l),
(12,0,l),
(85,0,l),
(219,211,l),
(355,0,l),
(427,0,l),
(246,270,l),
(417,540,l),
(388,540,o),
(236,540,o),
(347,540,c),
(219,330,l),
(85,540,l),
(55,540,o),
(41,540,o),
(12,540,c)
);
}
);
width = 438;
}
);
unicode = 120;
},
{
color = 1;
glyphname = y;
kernLeft = "0";
kernRight = "0";
lastChange = "2026-02-09 22:29:04 +0000";
layers = (
{
layerId = m01;
shapes = (
{
closed = 1;
nodes = (
(37,271,ls),
(37,110,o),
(143,16,o),
(257,16,cs),
(328,16,o),
(377,57,o),
(405,139,c),
(403,97,o),
(401,5,o),
(311,-26,cs),
(224,-56,o),
(141,-27,o),
(76,4,c),
(54,-174,l),
(183,-226,o),
(338,-249,o),
(470,-117,cs),
(606,19,o),
(564,184,o),
(563,316,cs),
(562,540,l),
(390,540,l),
(390,277,ls),
(390,214,o),
(352,167,o),
(300,167,cs),
(247,167,o),
(211,214,o),
(211,277,cs),
(212,540,l),
(37,540,l)
);
},
{
closed = 1;
nodes = (
(390,540,l),
(212,540,l)
);
}
);
width = 608;
},
{
layerId = m002;
shapes = (
{
closed = 1;
nodes = (
(46,271,ls),
(46,128,o),
(135,16,o),
(278,16,cs),
(358,16,o),
(421,63,o),
(447,139,c),
(447,40,o),
(430,-57,o),
(344,-107,cs),
(260,-156,o),
(162,-141,o),
(88,-77,c),
(66,-134,l),
(164,-200,o),
(282,-220,o),
(380,-154,cs),
(533,-52,o),
(493,132,o),
(492,316,cs),
(491,540,l),
(432,540,l),
(432,277,ls),
(432,169,o),
(386,76,o),
(278,76,cs),
(167,76,o),
(106,166,o),
(106,277,cs),
(107,540,l),
(46,540,l)
);
},
{
closed = 1;
nodes = (
(432,540,l),
(107,540,l)
);
}
);
width = 554;
}
);
unicode = 121;
},
{
glyphname = z;
kernLeft = "0";
kernRight = "0";
lastChange = "2026-02-09 22:29:04 +0000";
layers = (
{
layerId = m01;
shapes = (
{
closed = 1;
nodes = (
(31,56,l),
(31,0,l),
(205,0,l),
(532,484,l),
(532,540,l),
(358,540,l)
);
},
{
closed = 1;
nodes = (
(32,540,l),
(32,366,l),
(414,366,l),
(532,540,l)
);
},
{
closed = 1;
nodes = (
(151,174,l),
(32,0,l),
(532,0,l),
(532,30,o),
(532,145,o),
(532,174,c)
);
}
);
width = 563;
},
{
layerId = m002;
shapes = (
{
closed = 1;
nodes = (
(22,26,l),
(22,0,l),
(76,0,l),
(403,514,l),
(403,540,l),
(349,540,l)
);
},
{
closed = 1;
nodes = (
(23,540,l),
(23,480,l),
(365,480,l),
(403,540,l)
);
},
{
closed = 1;
nodes = (
(62,60,l),
(23,0,l),
(403,0,l),
(403,11,o),
(403,50,o),
(403,60,c)
);
}
);
width = 425;
}
);
unicode = 122;
},
{
glyphname = a.001;
kernLeft = "0";
kernRight = "0";
lastChange = "2026-02-09 22:29:13 +0000";
layers = (
{
layerId = m01;
shapes = (
{
closed = 1;
nodes = (
(328,-4,o),
(379,40,o),
(392,102,c),
(392,68,o),
(392,34,o),
(392,0,c),
(566,1,l),
(569,539,l),
(395,539,l),
(395,508,o),
(395,477,o),
(395,446,c),
(382,500,o),
(328,544,o),
(263,544,cs),
(136,544,o),
(26,430,o),
(26,269,cs),
(26,108,o),
(136,-4,o),
(263,-4,cs)
);
},
{
closed = 1;
nodes = (
(242,162,o),
(201,209,o),
(201,271,cs),
(201,334,o),
(242,381,o),
(303,381,cs),
(363,381,o),
(406,334,o),
(406,271,c),
(406,209,o),
(363,162,o),
(303,162,cs)
);
}
);
width = 624;
},
{
layerId = m002;
shapes = (
{
closed = 1;
nodes = (
(359,-4,o),
(422,24,o),
(461,82,c),
(450,56,o),
(451,28,o),
(451,0,c),
(511,0,l),
(514,530,l),
(454,530,l),
(454,504,o),
(451,477,o),
(463,454,c),
(421,510,o),
(360,544,o),
(290,544,cs),
(136,544,o),
(37,423,o),
(37,269,cs),
(37,115,o),
(136,-4,o),
(290,-4,cs)
);
},
{
closed = 1;
nodes = (
(166,57,o),
(97,153,o),
(97,269,cs),
(97,385,o),
(166,483,o),
(282,483,cs),
(396,483,o),
(457,383,o),
(457,269,c),
(457,156,o),
(395,57,o),
(282,57,cs)
);
}
);
width = 587;
}
);
},
{
glyphname = a.ss01;
kernLeft = "0";
kernRight = "0";
lastChange = "2026-02-09 22:29:13 +0000";
layers = (
{
layerId = m01;
shapes = (
{
closed = 1;
nodes = (
(328,-4,o),
(379,40,o),
(392,102,c),
(392,68,o),
(392,34,o),
(392,0,c),
(566,1,l),
(569,539,l),
(395,539,l),
(395,477,o),
(401,453,o),
(407,422,c),
(396,463,o),
(328,544,o),
(263,544,cs),
(136,544,o),
(26,430,o),
(26,269,cs),
(26,108,o),
(136,-4,o),
(263,-4,cs)
);
},
{
closed = 1;
nodes = (
(242,162,o),
(201,209,o),
(201,271,cs),
(201,334,o),
(242,381,o),
(303,381,cs),
(363,381,o),
(406,334,o),
(406,271,c),
(406,209,o),
(363,162,o),
(303,162,cs)
);
}
);
width = 624;
},
{
layerId = m002;
shapes = (
{
closed = 1;
nodes = (
(359,-4,o),
(422,24,o),
(461,82,c),
(450,56,o),
(451,28,o),
(451,0,c),
(511,0,l),
(514,530,l),
(454,530,l),
(454,504,o),
(451,477,o),
(463,454,c),
(421,510,o),
(360,544,o),
(290,544,cs),
(136,544,o),
(37,423,o),
(37,269,cs),
(37,115,o),
(136,-4,o),
(290,-4,cs)
);
},
{
closed = 1;
nodes = (
(166,57,o),
(97,153,o),
(97,269,cs),
(97,385,o),
(166,483,o),
(282,483,cs),
(396,483,o),
(457,383,o),
(457,269,c),
(457,156,o),
(395,57,o),
(282,57,cs)
);
}
);
width = 587;
}
);
},
{
color = 0;
glyphname = y.ss02;
kernLeft = "0";
kernRight = "0";
lastChange = "2026-02-09 22:29:13 +0000";
layers = (
{
layerId = m01;
shapes = (
{
closed = 1;
nodes = (
(286,206,l),
(182,540,l),
(152,540,o),
(37,540,o),
(8,540,c),
(69,362,o),
(131,182,o),
(192,4,cs),
(196,-6,o),
(195,-14,o),
(191,-23,cs),
(184,-36,o),
(174,-50,o),
(158,-46,cs),
(141,-42,o),
(123,-37,o),
(106,-33,c),
(56,-182,l),
(91,-196,o),
(120,-209,o),
(171,-209,cs),
(263,-209,o),
(323,-158,o),
(354,-71,c),
(570,540,l),
(549,540,o),
(403,540,o),
(390,540,c)
);
}
);
width = 578;
},
{
layerId = m002;
shapes = (
{
closed = 1;
nodes = (
(239,74,l),
(74,540,l),
(44,540,o),
(39,540,o),
(10,540,c),
(72,364,o),
(134,189,o),
(196,13,cs),
(200,4,o),
(200,-4,o),
(197,-13,cs),
(183,-72,o),
(163,-109,o),
(143,-112,cs),
(118,-116,o),
(103,-111,o),
(75,-90,c),
(51,-148,l),
(96,-176,o),
(112,-180,o),
(152,-172,cs),
(203,-161,o),
(238,-113,o),
(275,0,c),
(481,540,l),
(475,540,o),
(422,540,o),
(416,540,c)
);
}
);
width = 487;
}
);
},
{
glyphname = f_f.liga;
lastChange = "2026-02-09 22:29:06 +0000";
layers = (
{
layerId = m01;
shapes = (
{
ref = f;
},
{
alignment = -1;
pos = (371,0);
ref = f;
},
{
closed = 1;
nodes = (
(238,379,l),
(564,379,l),
(584,541,l),
(238,541,l)
);
}
);
width = 765;
},
{
layerId = m002;
shapes = (
{
ref = f;
},
{
pos = (272,0);
ref = f;
},
{
closed = 1;
nodes = (
(140,479,l),
(383,479,l),
(384,539,l),
(140,539,l)
);
}
);
width = 565;
}
);
metricLeft = f;
metricRight = f;
},
{
glyphname = f_f_i.liga;
lastChange = "2026-02-09 22:29:06 +0000";
layers = (
{
layerId = m01;
shapes = (
{
ref = f_f.liga;
},
{
alignment = -1;
pos = (742,0);
ref = i;
},
{
closed = 1;
nodes = (
(638,379,l),
(964,379,l),
(984,541,l),
(638,541,l)
);
}
);
width = 1032;
},
{
layerId = m002;
shapes = (
{
ref = f_f.liga;
},
{
pos = (574,0);
ref = i;
},
{
closed = 1;
nodes = (
(472,479,l),
(715,479,l),
(716,539,l),
(472,539,l)
);
}
);
width = 779;
}
);
metricLeft = f;
metricRight = i;
},
{
glyphname = f_i.liga;
lastChange = "2026-02-09 22:29:06 +0000";
layers = (
{
layerId = m01;
shapes = (
{
ref = f;
},
{
pos = (411,0);
ref = i;
},
{
closed = 1;
nodes = (
(309,379,l),
(635,379,l),
(655,541,l),
(309,541,l)
);
}
);
width = 703;
},
{
layerId = m002;
shapes = (
{
ref = f;
},
{
pos = (312,0);
ref = i;
},
{
closed = 1;
nodes = (
(210,479,l),
(453,479,l),
(454,539,l),
(210,539,l)
);
}
);
width = 517;
}
);
metricLeft = f;
metricRight = i;
},
{
glyphname = f_j.liga;
lastChange = "2026-02-09 22:29:06 +0000";
layers = (
{
layerId = m01;
shapes = (
{
ref = f;
},
{
pos = (381,0);
ref = j;
},
{
closed = 1;
nodes = (
(28,379,l),
(655,379,l),
(675,541,l),
(28,541,l)
);
}
);
width = 735;
},
{
layerId = m002;
shapes = (
{
ref = f;
},
{
pos = (272,0);
ref = j;
},
{
closed = 1;
nodes = (
(30,479,l),
(466,479,l),
(468,539,l),
(30,539,l)
);
}
);
width = 545;
}
);
metricLeft = f;
metricRight = j;
},
{
glyphname = f_t.liga;
lastChange = "2026-02-09 22:29:06 +0000";
layers = (
{
layerId = m01;
shapes = (
{
ref = f;
},
{
pos = (411,0);
ref = t;
},
{
closed = 1;
nodes = (
(218,379,l),
(544,379,l),
(564,541,l),
(218,541,l)
);
}
);
width = 815;
},
{
layerId = m002;
shapes = (
{
ref = f;
},
{
pos = (312,0);
ref = t;
},
{
closed = 1;
nodes = (
(140,479,l),
(383,479,l),
(384,539,l),
(140,539,l)
);
}
);
width = 614;
}
);
metricLeft = f;
metricRight = t;
},
{
glyphname = zero;
kernLeft = "0";
kernRight = "0";
lastChange = "2026-02-08 07:56:58 +0000";
layers = (
{
layerId = m01;
shapes = (
{
closed = 1;
nodes = (
(456,-12,o),
(560,137,o),
(560,350,cs),
(560,563,o),
(456,712,o),
(308,712,cs),
(160,712,o),
(56,563,o),
(56,350,cs),
(56,137,o),
(160,-12,o),
(308,-12,cs)
);
},
{
closed = 1;
nodes = (
(262,162,o),
(230,240,o),
(230,350,c),
(230,460,o),
(262,538,o),
(308,538,cs),
(354,538,o),
(387,460,o),
(387,350,cs),
(387,240,o),
(354,162,o),
(308,162,cs)
);
}
);
width = 616;
},
{
layerId = m002;
shapes = (
{
closed = 1;
nodes = (
(471,-12,o),
(575,137,o),
(575,350,cs),
(575,563,o),
(471,712,o),
(323,712,cs),
(175,712,o),
(71,563,o),
(71,350,cs),
(71,137,o),
(175,-12,o),
(323,-12,cs)
);
},
{
closed = 1;
nodes = (
(210,48,o),
(132,173,o),
(132,350,c),
(132,527,o),
(210,652,o),
(323,652,cs),
(435,652,o),
(515,527,o),
(515,350,cs),
(515,173,o),
(435,48,o),
(323,48,cs)
);
}
);
width = 646;
}
);
unicode = 48;
},
{
glyphname = one;
kernLeft = "0";
kernRight = "0";
lastChange = "2026-02-08 07:56:58 +0000";
layers = (
{
layerId = m01;
shapes = (
{
closed = 1;
nodes = (
(162,0,l),
(336,0,l),
(336,700,l),
(162,700,l)
);
},
{
closed = 1;
nodes = (
(34,409,l),
(77,409,o),
(119,428,o),
(162,469,c),
(162,700,l),
(119,637,o),
(77,603,o),
(34,600,c)
);
}
);
width = 432;
},
{
layerId = m002;
shapes = (
{
closed = 1;
nodes = (
(157,0,l),
(217,0,l),
(217,700,l),
(157,700,l)
);
},
{
closed = 1;
nodes = (
(29,541,l),
(72,541,o),
(114,560,o),
(157,601,c),
(157,700,l),
(114,637,o),
(72,603,o),
(29,600,c)
);
}
);
width = 329;
}
);
unicode = 49;
},
{
glyphname = two;
kernLeft = "0";
kernRight = "0";
lastChange = "2026-02-08 07:56:59 +0000";
layers = (
{
layerId = m01;
shapes = (
{
closed = 1;
nodes = (
(211,412,l),
(211,434,ls),
(211,498,o),
(242,539,o),
(291,539,cs),
(344,539,o),
(364,486,o),
(328,432,cs),
(16,-37,l),
(-4,0,l),
(255,0,l),
(523,0,l),
(523,174,l),
(350,174,l),
(490,386,ls),
(587,533,o),
(472,715,o),
(284,715,cs),
(109,715,o),
(37,560,o),
(37,415,cs),
(37,412,l)
);
}
);
width = 588;
},
{
layerId = m002;
shapes = (
{
closed = 1;
nodes = (
(107,452,l),
(107,474,ls),
(107,574,o),
(173,655,o),
(254,655,cs),
(366,655,o),
(421,532,o),
(354,432,cs),
(42,-37,l),
(22,0,l),
(208,0,l),
(476,0,l),
(476,60,l),
(178,60,l),
(396,386,ls),
(500,540,o),
(426,715,o),
(257,715,cs),
(126,715,o),
(47,617,o),
(47,455,cs),
(47,452,l)
);
}
);
width = 522;
}
);
unicode = 50;
},
{
glyphname = three;
kernLeft = "0";
kernRight = "0";
lastChange = "2026-02-08 07:56:59 +0000";
layers = (
{
layerId = m01;
shapes = (
{
closed = 1;
nodes = (
(205,464,l),
(209,498,o),
(226,539,o),
(275,539,cs),
(377,539,o),
(347,425,o),
(292,425,c),
(271,348,l),
(294,273,l),
(347,273,o),
(377,160,o),
(275,160,cs),
(226,160,o),
(211,201,o),
(205,235,c),
(48,196,l),
(48,123,o),
(125,-16,o),
(288,-16,cs),
(467,-16,o),
(595,198,o),
(443,350,c),
(584,498,o),
(464,700,o),
(288,715,cs),
(147,727,o),
(41,617,o),
(41,496,c)
);
},
{
closed = 1;
nodes = (
(256,274,l),
(424,274,l),
(424,425,l),
(236,425,l)
);
}
);
width = 573;
},
{
layerId = m002;
shapes = (
{
closed = 1;
nodes = (
(115,520,l),
(115,595,o),
(173,651,o),
(248,648,cs),
(452,641,o),
(437,390,o),
(179,375,c),
(178,356,l),
(181,332,l),
(443,318,o),
(454,52,o),
(248,52,cs),
(176,52,o),
(111,107,o),
(118,179,c),
(57,170,l),
(57,66,o),
(144,-8,o),
(248,-8,cs),
(487,-8,o),
(522,278,o),
(312,355,c),
(522,435,o),
(488,702,o),
(248,707,cs),
(142,709,o),
(56,634,o),
(56,528,c)
);
},
{
closed = 1;
nodes = (
(177,332,l),
(283,332,l),
(283,375,l),
(176,375,l)
);
}
);
width = 529;
}
);
unicode = 51;
},
{
glyphname = four;
kernLeft = "0";
kernRight = "0";
lastChange = "2026-02-08 07:56:58 +0000";
layers = (
{
layerId = m01;
shapes = (
{
closed = 1;
nodes = (
(344,0,l),
(518,0,l),
(518,470,l),
(344,470,l)
);
},
{
closed = 1;
nodes = (
(25,143,l),
(587,143,l),
(587,305,l),
(254,305,l),
(370,700,l),
(189,700,l)
);
}
);
width = 625;
},
{
layerId = m002;
shapes = (
{
closed = 1;
nodes = (
(289,0,l),
(349,0,l),
(349,470,l),
(289,470,l)
);
},
{
closed = 1;
nodes = (
(44,194,l),
(445,194,l),
(445,254,l),
(122,254,l),
(238,700,l),
(176,700,l)
);
}
);
width = 477;
}
);
unicode = 52;
},
{
glyphname = five;
kernLeft = "0";
kernRight = "0";
lastChange = "2026-02-09 22:05:21 +0000";
layers = (
{
layerId = m01;
shapes = (
{
closed = 1;
nodes = (
(198,343,o),
(342,314,o),
(334,235,cs),
(324,140,o),
(182,145,o),
(109,192,c),
(70,46,l),
(111,12,o),
(182,-8,o),
(256,1,cs),
(386,16,o),
(481,113,o),
(482,233,cs),
(483,353,o),
(392,450,o),
(254,465,c),
(255,534,l),
(452,534,l),
(472,700,l),
(88,700,l),
(93,313,l)
);
}
);
width = 540;
},
{
layerId = m002;
shapes = (
{
closed = 1;
nodes = (
(252,411,o),
(387,348,o),
(381,212,cs),
(375,82,o),
(228,30,o),
(85,77,c),
(76,17,l),
(132,1,o),
(191,-5,o),
(225,-3,cs),
(334,2,o),
(435,86,o),
(441,211,cs),
(448,362,o),
(315,449,o),
(149,425,c),
(148,640,l),
(418,640,l),
(428,700,l),
(88,700,l),
(89,356,l)
);
}
);
width = 499;
}
);
unicode = 53;
},
{
glyphname = six;
kernLeft = "0";
kernRight = "0";
lastChange = "2026-02-08 07:56:59 +0000";
layers = (
{
layerId = m01;
shapes = (
{
closed = 1;
nodes = (
(-31,183,o),
(112,14,o),
(255,-5,cs),
(419,-27,o),
(558,146,o),
(508,318,cs),
(478,419,o),
(395,486,o),
(300,475,c),
(416,700,l),
(229,700,l),
(183,597,o),
(133,521,o),
(80,411,cs)
);
},
{
closed = 1;
nodes = (
(243,155,o),
(207,195,o),
(207,239,cs),
(207,283,o),
(243,322,o),
(286,322,cs),
(327,322,o),
(365,283,o),
(365,239,cs),
(365,195,o),
(327,155,o),
(286,155,cs)
);
}
);
width = 552;
},
{
layerId = m002;
shapes = (
{
closed = 1;
nodes = (
(-6,234,o),
(64,19,o),
(244,-5,cs),
(412,-28,o),
(547,139,o),
(497,308,cs),
(462,428,o),
(321,504,o),
(214,461,c),
(352,700,l),
(282,700,l),
(213,576,o),
(175,512,o),
(109,411,cs)
);
},
{
closed = 1;
nodes = (
(189,53,o),
(110,139,o),
(110,236,cs),
(110,332,o),
(189,416,o),
(279,416,cs),
(367,416,o),
(447,330,o),
(447,236,cs),
(447,141,o),
(367,53,o),
(279,53,cs)
);
}
);
width = 556;
}
);
unicode = 54;
},
{
glyphname = seven;
kernLeft = "0";
kernRight = "0";
lastChange = "2026-02-08 07:56:59 +0000";
layers = (
{
layerId = m01;
shapes = (
{
closed = 1;
nodes = (
(464,697,l),
(22,697,l),
(42,523,l),
(236,523,l),
(90,0,l),
(270,0,l)
);
}
);
width = 483;
},
{
layerId = m002;
shapes = (
{
closed = 1;
nodes = (
(381,697,l),
(19,697,l),
(29,637,l),
(302,637,l),
(126,0,l),
(187,0,l)
);
}
);
width = 415;
}
);
unicode = 55;
},
{
glyphname = eight;
kernLeft = "0";
kernRight = "0";
lastChange = "2026-02-08 07:56:59 +0000";
layers = (
{
layerId = m01;
shapes = (
{
closed = 1;
nodes = (
(2,533,o),
(122,360,c),
(-25,192,o),
(108,-6,o),
(274,-6,cs),
(456,-6,o),
(582,192,o),
(434,360,c),
(553,537,o),
(419,702,o),
(280,705,cs),
(131,708,o)
);
},
{
closed = 1;
nodes = (
(240,151,o),
(210,183,o),
(210,217,cs),
(210,251,o),
(240,282,o),
(275,282,cs),
(309,282,o),
(340,251,o),
(340,217,cs),
(340,183,o),
(309,151,o),
(275,151,cs)
);
},
{
closed = 1;
nodes = (
(243,442,o),
(218,469,o),
(218,500,cs),
(218,532,o),
(243,557,o),
(275,557,cs),
(305,557,o),
(332,532,o),
(332,500,cs),
(332,469,o),
(305,442,o),
(275,442,cs)
);
}
);
width = 556;
},
{
layerId = m002;
shapes = (
{
closed = 1;
nodes = (
(18,470,o),
(178,370,c),
(0,271,o),
(66,-6,o),
(268,-6,cs),
(502,-6,o),
(548,277,o),
(380,370,c),
(529,472,o),
(454,702,o),
(275,705,cs),
(84,708,o)
);
},
{
closed = 1;
nodes = (
(201,54,o),
(132,121,o),
(132,197,cs),
(132,272,o),
(200,338,o),
(278,338,cs),
(355,338,o),
(425,271,o),
(425,197,cs),
(425,123,o),
(355,54,o),
(278,54,cs)
);
},
{
closed = 1;
nodes = (
(203,398,o),
(144,455,o),
(144,523,cs),
(144,591,o),
(201,645,o),
(274,645,cs),
(345,645,o),
(404,589,o),
(404,523,cs),
(404,457,o),
(343,398,o),
(274,398,c)
);
}
);
width = 553;
}
);
unicode = 56;
},
{
glyphname = period;
kernLeft = "0";
kernRight = "0";
lastChange = "2026-02-08 04:58:29 +0000";
layers = (
{
layerId = m01;
shapes = (
{
closed = 1;
nodes = (
(149,-15,ls),
(201,-15,o),
(230,13,o),
(230,66,cs),
(230,66,ls),
(230,119,o),
(201,147,o),
(149,147,cs),
(149,147,ls),
(97,147,o),
(68,119,o),
(68,66,cs),
(68,66,ls),
(68,13,o),
(97,-15,o),
(149,-15,cs)
);
}
);
width = 298;
},
{
layerId = m002;
shapes = (
{
closed = 1;
nodes = (
(128,-4,ls),
(155,-4,o),
(170,11,o),
(170,37,cs),
(170,37,ls),
(170,64,o),
(155,79,o),
(128,79,cs),
(128,79,ls),
(102,79,o),
(87,64,o),
(87,37,cs),
(87,37,ls),
(87,11,o),
(102,-4,o),
(128,-4,cs)
);
}
);
width = 257;
}
);
unicode = 46;
},
{
glyphname = comma;
kernLeft = "0";
kernRight = "0";
lastChange = "2026-02-08 04:58:29 +0000";
layers = (
{
layerId = m01;
shapes = (
{
closed = 1;
nodes = (
(63,65,cs),
(63,15,o),
(88,1,o),
(116,-10,c),
(59,-120,l),
(141,-120,l),
(208,0,ls),
(214,11,o),
(225,39,o),
(225,65,c),
(225,65,l),
(225,107,o),
(196,146,o),
(144,146,c),
(144,146,l),
(92,146,o),
(63,118,o)
);
}
);
width = 276;
},
{
layerId = m002;
shapes = (
{
closed = 1;
nodes = (
(84,39,cs),
(84,20,o),
(93,7,o),
(111,0,c),
(81,-56,l),
(124,-56,l),
(157,5,ls),
(164,15,o),
(167,27,o),
(167,39,c),
(167,39,l),
(167,63,o),
(149,80,o),
(125,80,c),
(125,80,l),
(100,80,o),
(84,64,o)
);
}
);
width = 245;
}
);
unicode = 44;
},
{
glyphname = exclam;
kernLeft = "0";
kernRight = "0";
lastChange = "2026-02-08 07:56:51 +0000";
layers = (
{
layerId = m01;
shapes = (
{
closed = 1;
nodes = (
(212,211,l),
(232,700,l),
(66,700,l),
(86,211,l)
);
},
{
ref = period;
}
);
width = 298;
},
{
layerId = m002;
shapes = (
{
closed = 1;
nodes = (
(143,131,l),
(149,700,l),
(88,700,l),
(94,131,l)
);
},
{
pos = (-2,0);
ref = period;
}
);
width = 240;
}
);
unicode = 33;
},
{
glyphname = question;
kernLeft = "0";
kernRight = "0";
lastChange = "2026-02-08 07:56:51 +0000";
layers = (
{
layerId = m01;
shapes = (
{
closed = 1;
nodes = (
(126,460,l),
(144,529,o),
(185,557,o),
(220,557,cs),
(259,558,o),
(291,523,o),
(275,473,cs),
(248,389,o),
(134,388,o),
(134,221,c),
(134,211,l),
(134,203,l),
(286,203,l),
(286,211,l),
(283,280,o),
(347,314,o),
(383,359,cs),
(504,508,o),
(400,714,o),
(211,714,c),
(211,714,l),
(88,714,o),
(23,625,o),
(-5,534,c)
);
},
{
pos = (64,0);
ref = period;
}
);
width = 447;
},
{
layerId = m002;
shapes = (
{
closed = 1;
nodes = (
(65,505,l),
(86,579,o),
(125,651,o),
(202,651,cs),
(317,651,o),
(352,520,o),
(289,424,cs),
(233,339,o),
(167,301,o),
(167,199,c),
(167,189,l),
(167,127,l),
(227,127,l),
(227,189,l),
(227,269,o),
(288,305,o),
(330,373,cs),
(423,524,o),
(375,714,o),
(198,714,c),
(198,714,l),
(90,714,o),
(27,623,o),
(12,516,c)
);
},
{
pos = (78,0);
ref = period;
}
);
width = 405;
}
);
unicode = 63;
},
{
glyphname = periodcentered;
kernLeft = "0";
kernRight = "0";
lastChange = "2026-02-08 07:56:51 +0000";
layers = (
{
layerId = m01;
shapes = (
{
closed = 1;
nodes = (
(149,175,ls),
(201,175,o),
(230,203,o),
(230,256,cs),
(230,256,ls),
(230,309,o),
(201,337,o),
(149,337,cs),
(149,337,ls),
(97,337,o),
(68,309,o),
(68,256,cs),
(68,256,ls),
(68,203,o),
(97,175,o),
(149,175,cs)
);
}
);
width = 298;
},
{
layerId = m002;
shapes = (
{
closed = 1;
nodes = (
(118,227,ls),
(137,227,o),
(147,237,o),
(147,256,cs),
(147,256,ls),
(147,275,o),
(137,285,o),
(118,285,cs),
(118,285,ls),
(99,285,o),
(89,275,o),
(89,256,cs),
(89,256,ls),
(89,237,o),
(99,227,o),
(118,227,cs)
);
}
);
width = 236;
}
);
unicode = 183;
},
{
glyphname = numbersign;
kernLeft = "0";
kernRight = "0";
lastChange = "2026-02-08 07:56:51 +0000";
layers = (
{
layerId = m01;
shapes = (
{
closed = 1;
nodes = (
(51,0,l),
(230,0,l),
(407,700,l),
(228,700,l)
);
},
{
closed = 1;
nodes = (
(308,0,l),
(487,0,l),
(664,700,l),
(485,700,l)
);
},
{
closed = 1;
nodes = (
(77,406,l),
(677,406,l),
(727,580,l),
(127,580,l)
);
},
{
closed = 1;
nodes = (
(17,160,l),
(617,160,l),
(667,334,l),
(67,334,l)
);
}
);
width = 739;
},
{
layerId = m002;
shapes = (
{
closed = 1;
nodes = (
(70,0,l),
(133,0,l),
(310,700,l),
(247,700,l)
);
},
{
closed = 1;
nodes = (
(300,0,l),
(363,0,l),
(540,700,l),
(477,700,l)
);
},
{
closed = 1;
nodes = (
(80,480,l),
(590,480,l),
(600,540,l),
(90,540,l)
);
},
{
closed = 1;
nodes = (
(20,160,l),
(530,160,l),
(540,220,l),
(30,220,l)
);
}
);
width = 618;
}
);
unicode = 35;
},
{
glyphname = slash;
kernLeft = "0";
kernRight = "0";
lastChange = "2026-02-08 07:56:51 +0000";
layers = (
{
layerId = m01;
shapes = (
{
closed = 1;
nodes = (
(-3,0,l),
(155,0,l),
(392,700,l),
(234,700,l)
);
}
);
width = 389;
},
{
layerId = m002;
shapes = (
{
closed = 1;
nodes = (
(10,0,l),
(73,0,l),
(310,700,l),
(247,700,l)
);
}
);
width = 320;
}
);
unicode = 47;
},
{
glyphname = hyphen;
kernLeft = "0";
kernRight = "0";
lastChange = "2026-02-08 07:56:51 +0000";
layers = (
{
layerId = m01;
shapes = (
{
closed = 1;
nodes = (
(80,195,l),
(386,195,l),
(386,329,l),
(80,329,l)
);
}
);
width = 466;
},
{
layerId = m002;
shapes = (
{
closed = 1;
nodes = (
(93,232,l),
(399,232,l),
(399,292,l),
(93,292,l)
);
}
);
width = 492;
}
);
unicode = 45;
},
{
glyphname = parenleft;
kernLeft = "0";
kernRight = "0";
lastChange = "2026-02-08 07:56:51 +0000";
layers = (
{
layerId = m01;
shapes = (
{
closed = 1;
nodes = (
(137,681,o),
(60,505,o),
(60,324,cs),
(60,143,o),
(137,-33,o),
(162,-91,c),
(351,-91,l),
(325,-33,o),
(234,143,o),
(234,324,cs),
(234,505,o),
(325,681,o),
(351,739,c),
(162,739,l)
);
}
);
width = 374;
},
{
layerId = m002;
shapes = (
{
closed = 1;
nodes = (
(153,681,o),
(76,505,o),
(76,324,cs),
(76,143,o),
(153,-33,o),
(178,-91,c),
(253,-91,l),
(227,-33,o),
(136,143,o),
(136,324,cs),
(136,505,o),
(227,681,o),
(253,739,c),
(178,739,l)
);
}
);
width = 291;
}
);
unicode = 40;
},
{
glyphname = braceleft;
kernLeft = "0";
kernRight = "0";
lastChange = "2026-02-08 07:56:51 +0000";
layers = (
{
layerId = m01;
shapes = (
{
closed = 1;
nodes = (
(109,486,l),
(109,373,o),
(9,361,o),
(9,328,c),
(9,294,o),
(109,281,o),
(109,167,c),
(109,8,ls),
(109,-57,o),
(144,-92,o),
(209,-92,cs),
(412,-92,l),
(412,62,l),
(283,62,l),
(283,166,l),
(281,291,o),
(179,315,o),
(183,329,c),
(195,351,o),
(287,371,o),
(283,486,c),
(283,585,l),
(412,585,l),
(412,739,l),
(209,739,ls),
(144,739,o),
(109,704,o),
(109,639,cs)
);
}
);
width = 453;
},
{
layerId = m002;
shapes = (
{
closed = 1;
nodes = (
(122,487,l),
(122,384,o),
(32,362,o),
(32,329,c),
(32,294,o),
(122,271,o),
(122,167,c),
(122,8,ls),
(122,-57,o),
(157,-92,o),
(222,-92,cs),
(425,-92,l),
(425,-32,l),
(182,-32,l),
(182,166,l),
(190,286,o),
(102,317,o),
(92,330,c),
(96,329,o),
(185,360,o),
(182,487,c),
(182,679,l),
(425,679,l),
(425,739,l),
(222,739,ls),
(157,739,o),
(122,704,o),
(122,639,cs)
);
}
);
width = 458;
}
);
unicode = 123;
},
{
glyphname = bracketleft;
kernLeft = "0";
kernRight = "0";
lastChange = "2026-02-08 07:56:51 +0000";
layers = (
{
layerId = m01;
shapes = (
{
closed = 1;
nodes = (
(96,-91,l),
(270,-91,l),
(270,739,l),
(96,739,l)
);
},
{
closed = 1;
nodes = (
(96,585,l),
(399,585,l),
(399,739,l),
(96,739,l)
);
},
{
closed = 1;
nodes = (
(96,-92,l),
(399,-92,l),
(399,62,l),
(96,62,l)
);
}
);
width = 440;
},
{
layerId = m002;
shapes = (
{
closed = 1;
nodes = (
(112,-91,l),
(172,-91,l),
(172,739,l),
(112,739,l)
);
},
{
closed = 1;
nodes = (
(112,679,l),
(301,679,l),
(301,739,l),
(112,739,l)
);
},
{
closed = 1;
nodes = (
(112,-92,l),
(301,-92,l),
(301,-32,l),
(112,-32,l)
);
}
);
width = 334;
}
);
unicode = 91;
},
{
glyphname = guilsinglleft;
kernLeft = "0";
kernRight = "0";
lastChange = "2026-02-08 07:56:51 +0000";
layers = (
{
layerId = m01;
shapes = (
{
closed = 1;
nodes = (
(391,93,l),
(168,323,l),
(168,221,l),
(391,451,l),
(279,553,l),
(10,272,l),
(279,-9,l)
);
}
);
width = 421;
},
{
layerId = m002;
shapes = (
{
closed = 1;
nodes = (
(340,32,l),
(73,311,l),
(73,233,l),
(339,511,l),
(295,553,l),
(26,272,l),
(295,-9,l)
);
}
);
width = 379;
}
);
unicode = 8249;
},
{
glyphname = quotedbl;
kernLeft = "0";
kernRight = "0";
lastChange = "2026-02-08 07:56:51 +0000";
layers = (
{
layerId = m01;
shapes = (
{
closed = 1;
nodes = (
(111,706,o),
(75,670,o),
(75,625,cs),
(75,595,o),
(101,512,o),
(133,440,c),
(187,440,l),
(215,506,o),
(237,588,o),
(237,625,c),
(237,625,l),
(237,670,o),
(201,706,o),
(156,706,c),
(156,706,l)
);
},
{
closed = 1;
nodes = (
(321,706,o),
(285,670,o),
(285,625,cs),
(285,595,o),
(311,512,o),
(343,440,c),
(397,440,l),
(425,506,o),
(447,588,o),
(447,625,c),
(447,625,l),
(447,670,o),
(411,706,o),
(366,706,c),
(366,706,l)
);
}
);
width = 525;
},
{
layerId = m002;
shapes = (
{
closed = 1;
nodes = (
(119,716,o),
(101,698,o),
(101,675,cs),
(101,660,o),
(114,618,o),
(130,582,c),
(157,582,l),
(171,615,o),
(182,656,o),
(182,675,c),
(182,675,l),
(182,698,o),
(164,716,o),
(142,716,c),
(142,716,l)
);
},
{
closed = 1;
nodes = (
(240,716,o),
(222,698,o),
(222,675,cs),
(222,660,o),
(235,618,o),
(251,582,c),
(278,582,l),
(292,615,o),
(303,656,o),
(303,675,c),
(303,675,l),
(303,698,o),
(285,716,o),
(263,716,c),
(263,716,l)
);
}
);
width = 406;
}
);
unicode = 34;
},
{
glyphname = at;
lastChange = "2026-02-08 07:56:48 +0000";
layers = (
{
layerId = m01;
shapes = (
{
closed = 1;
nodes = (
(735,-6,o),
(803,15,o),
(847,107,cs),
(866,147,o),
(877,206,o),
(877,279,cs),
(877,527,o),
(693,728,o),
(467,728,cs),
(242,728,o),
(58,527,o),
(58,279,cs),
(58,31,o),
(242,-169,o),
(467,-169,cs),
(547,-169,o),
(608,-143,o),
(677,-104,c),
(619,0,l),
(558,-36,o),
(519,-51,o),
(467,-51,cs),
(304,-51,o),
(171,98,o),
(171,279,cs),
(171,461,o),
(305,610,o),
(467,610,cs),
(630,610,o),
(764,461,o),
(764,279,cs),
(764,225,o),
(765,195,o),
(749,163,cs),
(738,141,o),
(724,126,o),
(697,128,cs),
(676,129,o),
(662,169,o),
(662,236,cs),
(662,301,o),
(651,-1059,o),
(664,490,c),
(531,490,l),
(531,441,o),
(531,437,o),
(536,426,c),
(508,475,o),
(469,502,o),
(426,502,cs),
(332,502,o),
(251,394,o),
(251,269,cs),
(251,145,o),
(332,39,o),
(426,39,cs),
(496,39,o),
(528,69,o),
(534,141,c),
(534,87,o),
(583,26,o),
(651,12,cs)
);
},
{
closed = 1;
nodes = (
(426,213,o),
(406,236,o),
(406,270,cs),
(406,303,o),
(426,327,o),
(455,327,c),
(483,327,o),
(502,304,o),
(502,270,cs),
(502,236,o),
(483,213,o),
(455,213,cs)
);
}
);
width = 934;
},
{
layerId = m002;
shapes = (
{
closed = 1;
nodes = (
(712,20,o),
(792,44,o),
(825,117,c),
(844,155,o),
(854,210,o),
(854,279,cs),
(854,512,o),
(681,702,o),
(468,702,cs),
(256,702,o),
(83,512,o),
(83,279,cs),
(83,46,o),
(256,-143,o),
(468,-143,cs),
(550,-143,o),
(628,-115,o),
(694,-63,c),
(658,-16,l),
(602,-61,o),
(537,-84,o),
(468,-84,cs),
(289,-84,o),
(143,80,o),
(143,279,cs),
(143,479,o),
(290,643,o),
(468,643,cs),
(647,643,o),
(794,479,o),
(794,279,cs),
(794,208,o),
(788,175,o),
(770,146,c),
(752,115,o),
(719,100,o),
(693,113,cs),
(676,121,o),
(663,140,o),
(663,155,cs),
(664,277,o),
(664,368,o),
(665,490,c),
(605,490,l),
(605,443,o),
(605,438,o),
(612,426,c),
(576,475,o),
(523,502,o),
(466,502,cs),
(341,502,o),
(252,405,o),
(252,269,cs),
(252,134,o),
(341,39,o),
(466,39,cs),
(528,39,o),
(580,76,o),
(610,141,c),
(602,121,o),
(621,75,o),
(643,62,cs)
);
},
{
closed = 1;
nodes = (
(373,99,o),
(311,169,o),
(311,269,cs),
(311,369,o),
(373,441,o),
(459,441,cs),
(542,441,o),
(599,371,o),
(599,269,cs),
(599,169,o),
(541,99,o),
(459,99,cs)
);
}
);
width = 935;
}
);
unicode = 64;
},
{
glyphname = euro;
kernLeft = "0";
kernRight = "0";
lastChange = "2026-02-08 07:56:48 +0000";
layers = (
{
layerId = m01;
shapes = (
{
closed = 1;
nodes = (
(70,378,l),
(668,378,l),
(668,469,l),
(70,469,l)
);
},
{
pos = (125,0);
ref = C;
},
{
closed = 1;
nodes = (
(70,238,l),
(668,238,l),
(668,329,l),
(70,329,l)
);
}
);
width = 762;
},
{
layerId = m002;
shapes = (
{
closed = 1;
nodes = (
(82,384,l),
(640,384,l),
(640,444,l),
(82,444,l)
);
},
{
pos = (117,0);
ref = C;
},
{
closed = 1;
nodes = (
(82,264,l),
(640,264,l),
(640,324,l),
(82,324,l)
);
}
);
width = 755;
}
);
unicode = 8364;
},
{
glyphname = sterling;
kernLeft = "0";
kernRight = "0";
lastChange = "2026-02-08 07:56:48 +0000";
layers = (
{
layerId = m01;
shapes = (
{
closed = 1;
nodes = (
(179,253,o),
(169,127,o),
(59,0,c),
(233,0,l),
(343,129,o),
(353,259,o),
(353,388,cs),
(353,486,o),
(406,538,o),
(503,538,cs),
(536,538,l),
(556,700,l),
(499,700,ls),
(291,700,o),
(179,588,o),
(179,380,cs)
);
},
{
closed = 1;
nodes = (
(533,0,l),
(553,162,l),
(217,162,l),
(217,0,l)
);
},
{
closed = 1;
nodes = (
(59,293,l),
(547,293,l),
(557,384,l),
(79,384,l)
);
}
);
width = 660;
},
{
layerId = m002;
shapes = (
{
closed = 1;
nodes = (
(194,253,o),
(184,127,o),
(74,0,c),
(132,0,l),
(242,129,o),
(252,259,o),
(252,388,cs),
(252,527,o),
(344,640,o),
(489,640,cs),
(512,640,l),
(522,700,l),
(514,700,ls),
(306,700,o),
(194,588,o),
(194,380,cs)
);
},
{
closed = 1;
nodes = (
(512,0,l),
(522,60,l),
(132,60,l),
(132,0,l)
);
},
{
closed = 1;
nodes = (
(84,309,l),
(512,309,l),
(522,369,l),
(94,369,l)
);
}
);
width = 618;
}
);
unicode = 163;
},
{
glyphname = yen;
kernLeft = "0";
kernRight = "0";
lastChange = "2026-02-08 07:56:19 +0000";
layers = (
{
layerId = m01;
shapes = (
{
pos = (68,0);
ref = Y;
},
{
closed = 1;
nodes = (
(115,288,l),
(541,288,l),
(541,379,l),
(115,379,l)
);
},
{
closed = 1;
nodes = (
(115,148,l),
(541,148,l),
(541,239,l),
(115,239,l)
);
}
);
width = 653;
},
{
layerId = m002;
shapes = (
{
pos = (98,0);
ref = Y;
},
{
closed = 1;
nodes = (
(102,304,l),
(498,304,l),
(498,364,l),
(102,364,l)
);
},
{
closed = 1;
nodes = (
(102,184,l),
(498,184,l),
(498,244,l),
(102,244,l)
);
}
);
width = 610;
}
);
unicode = 165;
},
{
glyphname = notequal;
kernLeft = "0";
kernRight = "0";
lastChange = "2026-02-08 07:56:45 +0000";
layers = (
{
layerId = m01;
shapes = (
{
pos = (-10,0);
ref = equal;
},
{
closed = 1;
nodes = (
(136,0,l),
(316,0,l),
(463,540,l),
(283,540,l)
);
}
);
width = 662;
},
{
layerId = m002;
shapes = (
{
pos = (-22,0);
ref = equal;
},
{
closed = 1;
nodes = (
(195,0,l),
(258,0,l),
(405,540,l),
(342,540,l)
);
}
);
width = 648;
}
);
unicode = 8800;
},
{
glyphname = asciitilde;
lastChange = "2026-02-08 07:56:45 +0000";
layers = (
{
layerId = m01;
shapes = (
{
closed = 1;
nodes = (
(108,175,l),
(146,198,o),
(189,245,o),
(253,245,cs),
(291,245,o),
(343,145,o),
(433,145,cs),
(497,145,o),
(529,182,o),
(567,215,c),
(567,349,l),
(529,316,o),
(497,279,o),
(433,279,cs),
(386,279,o),
(328,379,o),
(253,379,cs),
(189,379,o),
(146,332,o),
(108,309,c)
);
}
);
width = 674;
},
{
layerId = m002;
shapes = (
{
closed = 1;
nodes = (
(123,209,l),
(161,232,o),
(204,289,o),
(268,289,cs),
(314,289,o),
(371,189,o),
(448,189,cs),
(512,189,o),
(544,216,o),
(582,249,c),
(582,319,l),
(544,286,o),
(512,249,o),
(448,249,cs),
(401,249,o),
(343,349,o),
(268,349,cs),
(204,349,o),
(161,302,o),
(123,279,c)
);
}
);
width = 707;
}
);
unicode = 126;
},
{
glyphname = asciicircum;
lastChange = "2026-02-08 07:56:45 +0000";
layers = (
{
layerId = m01;
shapes = (
{
closed = 1;
nodes = (
(159,332,l),
(339,545,l),
(237,545,l),
(417,332,l),
(529,434,l),
(258,737,l),
(318,737,l),
(47,434,l)
);
}
);
width = 576;
},
{
layerId = m002;
shapes = (
{
closed = 1;
nodes = (
(119,460,l),
(283,644,l),
(217,645,l),
(382,460,l),
(424,502,l),
(228,721,l),
(272,721,l),
(76,502,l)
);
}
);
width = 500;
}
);
unicode = 94;
},
{
glyphname = percent;
lastChange = "2026-02-08 07:56:45 +0000";
layers = (
{
layerId = m01;
shapes = (
{
closed = 1;
nodes = (
(207,0,l),
(400,0,l),
(737,700,l),
(544,700,l)
);
},
{
closed = 1;
nodes = (
(819,-1,o),
(896,80,o),
(896,179,cs),
(896,278,o),
(819,358,o),
(725,358,cs),
(630,358,o),
(553,278,o),
(553,179,cs),
(553,80,o),
(630,-1,o),
(725,-1,cs)
);
},
{
closed = 1;
nodes = (
(706,143,o),
(691,159,o),
(691,179,cs),
(691,198,o),
(706,214,o),
(725,214,c),
(743,214,o),
(758,198,o),
(758,179,cs),
(758,159,o),
(743,143,o),
(725,143,cs)
);
},
{
closed = 1;
nodes = (
(316,346,o),
(393,427,o),
(393,526,cs),
(393,625,o),
(316,705,o),
(222,705,cs),
(127,705,o),
(50,625,o),
(50,526,cs),
(50,427,o),
(127,346,o),
(222,346,cs)
);
},
{
closed = 1;
nodes = (
(203,490,o),
(188,506,o),
(188,526,cs),
(188,545,o),
(203,561,o),
(222,561,c),
(240,561,o),
(255,545,o),
(255,526,cs),
(255,506,o),
(240,490,o),
(222,490,cs)
);
}
);
width = 946;
},
{
layerId = m002;
shapes = (
{
closed = 1;
nodes = (
(160,0,l),
(226,0,l),
(563,700,l),
(497,700,l)
);
},
{
closed = 1;
nodes = (
(603,-1,o),
(666,65,o),
(666,145,cs),
(666,226,o),
(603,291,o),
(527,291,cs),
(450,291,o),
(387,226,o),
(387,145,cs),
(387,65,o),
(450,-1,o),
(527,-1,cs)
);
},
{
closed = 1;
nodes = (
(482,61,o),
(447,98,o),
(447,146,cs),
(447,192,o),
(482,229,o),
(528,229,c),
(571,229,o),
(606,192,o),
(606,146,cs),
(606,98,o),
(571,61,o),
(528,61,cs)
);
},
{
closed = 1;
nodes = (
(279,417,o),
(341,482,o),
(341,561,cs),
(341,641,o),
(279,705,o),
(204,705,cs),
(127,705,o),
(65,641,o),
(65,561,cs),
(65,482,o),
(127,417,o),
(204,417,cs)
);
},
{
closed = 1;
nodes = (
(159,478,o),
(126,514,o),
(126,562,cs),
(126,608,o),
(159,644,o),
(204,644,c),
(247,644,o),
(281,608,o),
(281,562,cs),
(281,514,o),
(247,478,o),
(204,478,cs)
);
}
);
width = 731;
}
);
unicode = 37;
},
{
glyphname = rightArrow;
kernLeft = "0";
kernRight = "0";
lastChange = "2026-02-08 07:56:45 +0000";
layers = (
{
layerId = m01;
shapes = (
{
closed = 1;
nodes = (
(693,272,l),
(424,553,l),
(321,442,l),
(545,232,l)
);
},
{
pos = (-22,10);
ref = endash;
},
{
closed = 1;
nodes = (
(693,272,l),
(545,312,l),
(321,102,l),
(424,-9,l)
);
}
);
width = 727;
},
{
layerId = m002;
shapes = (
{
closed = 1;
nodes = (
(572,272,l),
(323,503,l),
(290,452,l),
(484,272,l)
);
},
{
pos = (-23,10);
ref = endash;
},
{
closed = 1;
nodes = (
(572,272,l),
(484,272,l),
(290,92,l),
(323,41,l)
);
}
);
width = 629;
}
);
unicode = 8594;
},
{
glyphname = acute;
lastChange = "2026-02-08 10:41:00 +0000";
layers = (
{
layerId = m01;
shapes = (
{
closed = 1;
nodes = (
(90,754,l),
(180,754,l),
(270,920,l),
(130,920,l)
);
}
);
width = 300;
},
{
layerId = m002;
shapes = (
{
closed = 1;
nodes = (
(100,744,l),
(140,744,l),
(210,870,l),
(150,870,l)
);
}
);
width = 300;
}
);
unicode = 180;
},
{
glyphname = caron;
lastChange = "2026-02-09 10:28:27 +0000";
layers = (
{
layerId = m01;
shapes = (
{
closed = 1;
nodes = (
(150,837,l),
(105,920,l),
(-5,920,l),
(95,754,l),
(205,754,l),
(305,920,l),
(195,920,l)
);
}
);
width = 300;
},
{
layerId = m002;
shapes = (
{
closed = 1;
nodes = (
(150,837,l),
(105,920,l),
(35,920,l),
(135,754,l),
(165,754,l),
(265,920,l),
(195,920,l)
);
}
);
width = 300;
}
);
unicode = 711;
},
{
glyphname = AAngle;
kernLeft = "0";
kernRight = "0";
lastChange = "2026-02-07 11:18:41 +0000";
layers = (
{
layerId = m01;
shapes = (
{
closed = 1;
nodes = (
(-4,0,l),
(170,0,l),
(355,512,l),
(321,512,l),
(506,0,l),
(680,0,l),
(440,700,l),
(410,700,l),
(266,700,l),
(236,700,l)
);
}
);
width = 677;
},
{
layerId = m002;
shapes = (
{
closed = 1;
nodes = (
(8,0,l),
(72,0,l),
(291,612,l),
(257,612,l),
(477,0,l),
(541,0,l),
(291,700,l),
(286,700,l),
(267,700,l),
(262,700,l)
);
}
);
width = 550;
}
);
},
{
glyphname = Currency;
kernLeft = "0";
kernRight = "0";
lastChange = "2026-02-07 07:58:50 +0000";
layers = (
{
layerId = m01;
shapes = (
{
closed = 1;
nodes = (
(35,616,l),
(115,616,l),
(115,759,l),
(35,759,l)
);
},
{
closed = 1;
nodes = (
(35,-64,l),
(115,-64,l),
(115,79,l),
(35,79,l)
);
}
);
width = 150;
},
{
layerId = m002;
shapes = (
{
closed = 1;
nodes = (
(54,646,l),
(114,646,l),
(114,759,l),
(54,759,l)
);
},
{
closed = 1;
nodes = (
(54,-64,l),
(114,-64,l),
(114,49,l),
(54,49,l)
);
}
);
width = 167;
}
);
},
